<?xml version="1.0" encoding="utf-8"?>
<!-- Generator: Adobe Illustrator 16.0.0, SVG Export Plug-In . SVG Version: 6.00 Build 0)  -->
<!DOCTYPE svg PUBLIC "-//W3C//DTD SVG 1.1//EN" "http://www.w3.org/Graphics/SVG/1.1/DTD/svg11.dtd">
<svg version="1.1" id="Шар_1" xmlns="http://www.w3.org/2000/svg" xmlns:xlink="http://www.w3.org/1999/xlink" x="0px" y="0px"
	 width="32.75px" height="32.75px" viewBox="0 0 32.75 32.75" enable-background="new 0 0 32.75 32.75" xml:space="preserve">
<path fill="none" stroke="#FFFFFF" stroke-width="0.75" stroke-miterlimit="10" d="M23.357,29.411H6.263l7.317-7.317l3.484,3.484
	l10.454-10.453v10.916l-0.003,1.365c0,1.104-0.896,2-2,2L23.357,29.411z"/>
<path fill-rule="evenodd" clip-rule="evenodd" fill="none" stroke="#FFFFFF" stroke-width="0.75" stroke-miterlimit="10" d="
	M22.955,14.795l-5.193,5.208l-3.484-3.484L3.823,26.973V20.7l10.628-10.628l3.767,3.377l2.248-2.244l1.034-1.091
	c0.877-0.877,1.763-1.763,2.641-2.641c0.048-0.049,0.097-0.097,0.163-0.164c-0.056-0.056-0.103-0.103-0.149-0.148
	c-0.392-0.399-0.799-0.787-1.184-1.192c-0.196-0.205-0.226-0.443-0.077-0.621c0.07-0.083,0.19-0.166,0.294-0.173
	c2.154-0.163,6.588-0.498,6.588-0.498s-0.326,4.566-0.468,6.552c-0.021,0.3-0.321,0.501-0.6,0.377
	c-0.152-0.067-0.292-0.18-0.414-0.296c-0.338-0.324-0.458-0.454-0.79-0.784c-0.043-0.043-0.09-0.083-0.148-0.137
	c-0.058,0.058-0.104,0.104-0.152,0.152C26.321,11.423,22.955,14.795,22.955,14.795z"/>
</svg>
