<?xml version="1.0" encoding="utf-8"?>
<!-- Generator: Adobe Illustrator 16.0.0, SVG Export Plug-In . SVG Version: 6.00 Build 0)  -->
<!DOCTYPE svg PUBLIC "-//W3C//DTD SVG 1.1//EN" "http://www.w3.org/Graphics/SVG/1.1/DTD/svg11.dtd">
<svg version="1.1" id="Шар_1" xmlns="http://www.w3.org/2000/svg" xmlns:xlink="http://www.w3.org/1999/xlink" x="0px" y="0px"
	 width="32px" height="32px" viewBox="0 0 32 32" enable-background="new 0 0 32 32" xml:space="preserve">
<path fill="none" stroke="#FFFFFF" stroke-width="0.75" stroke-miterlimit="10" d="M6.176,30.161h23.617L19.465,19.828l-2.338,2.424
	l-5.002-5.001l-2.999,3l-7.111-7.167V26.79l0.003,1.365c0,1.105,0.896,2,2,2L6.176,30.161z"/>
<path fill-rule="evenodd" clip-rule="evenodd" fill="none" stroke="#FFFFFF" stroke-width="0.75" stroke-miterlimit="10" d="
	M17.992,12.802l-5.396-5.381l3.091-3.108l3.65,3.752l2.243,2.248l1.091,1.034c0.877,0.877,1.764,1.764,2.641,2.641
	c0.05,0.048,0.097,0.097,0.165,0.163c0.056-0.056,0.102-0.103,0.148-0.149c0.399-0.392,0.787-0.799,1.192-1.184
	c0.205-0.196,0.443-0.225,0.621-0.077c0.083,0.07,0.166,0.19,0.173,0.294c0.163,2.155,0.497,6.588,0.497,6.588
	s-4.565-0.326-6.551-0.468c-0.3-0.021-0.502-0.321-0.377-0.599c0.067-0.153,0.18-0.293,0.295-0.415
	c0.325-0.338,0.455-0.458,0.785-0.79c0.043-0.042,0.083-0.09,0.137-0.148c-0.058-0.058-0.104-0.104-0.152-0.152
	C21.364,16.168,17.992,12.802,17.992,12.802z"/>
</svg>
