<?xml version="1.0" encoding="utf-8"?>
<!-- Generator: Adobe Illustrator 16.0.0, SVG Export Plug-In . SVG Version: 6.00 Build 0)  -->
<!DOCTYPE svg PUBLIC "-//W3C//DTD SVG 1.1//EN" "http://www.w3.org/Graphics/SVG/1.1/DTD/svg11.dtd">
<svg version="1.1" id="Шар_1" xmlns="http://www.w3.org/2000/svg" xmlns:xlink="http://www.w3.org/1999/xlink" x="0px" y="0px"
	 width="32px" height="32.25px" viewBox="0 0 32 32.25" enable-background="new 0 0 32 32.25" xml:space="preserve">
<path fill-rule="evenodd" clip-rule="evenodd" fill="none" stroke="#FFFFFF" stroke-width="0.75" stroke-miterlimit="10" d="
	M9.494,30.112c-1.309-0.28-2.423-1.104-3.163-2.322c-0.588-0.969-0.707-2.072-0.971-3.128c-0.538-2.159-1-4.338-1.503-6.504
	c-0.332-1.43,0.011-2.249,1.32-2.983c1.007-0.565,2.417-0.786,3.256-0.865c1.771-0.168,4.76-0.271,7.115,0.237
	c0.643,0.139,1.249,0.389,1.798,0.75c1.135,0.744,1.419,1.473,1.105,2.803c-0.643,2.731-1.286,5.464-1.934,8.195
	c-0.52,2.191-2.021,3.542-4.12,3.817C11.438,30.238,10.44,30.315,9.494,30.112z"/>
<path fill-rule="evenodd" clip-rule="evenodd" fill="none" stroke="#FFFFFF" stroke-width="0.75" stroke-miterlimit="10" d="
	M24.681,17.038c-0.398-2.183-3.227-2.425-5.547-1.678c1.553,0.99-0.184,5.556-1.383,10.93c-0.046,0.209-0.268,0.527,0.167,0.515
	c1.185-0.033,2.398,0.297,3.538-0.359c1.079-0.622,1.525-1.604,1.804-2.743C23.718,21.822,24.879,18.121,24.681,17.038z"/>
<path fill-rule="evenodd" clip-rule="evenodd" fill="none" stroke="#FFFFFF" stroke-width="0.75" stroke-miterlimit="10" d="
	M19.107,13.94c-1.836-0.014-3.177-1.393-3.139-3.228c0.036-1.753,1.426-3.081,3.21-3.071c1.814,0.012,3.254,1.44,3.223,3.199
	C22.369,12.627,20.96,13.953,19.107,13.94z"/>
<path fill-rule="evenodd" clip-rule="evenodd" fill="none" stroke="#FFFFFF" stroke-width="0.75" stroke-miterlimit="10" d="
	M29.511,17.015c-0.291-1.593-2.354-1.769-4.048-1.225c1.133,0.724-0.133,4.054-1.008,7.974c-0.033,0.152-0.196,0.385,0.121,0.376
	c0.864-0.024,1.75,0.217,2.582-0.263c0.787-0.453,1.112-1.169,1.315-2.001C28.808,20.504,29.654,17.805,29.511,17.015z"/>
<path fill-rule="evenodd" clip-rule="evenodd" fill="none" stroke="#FFFFFF" stroke-width="0.75" stroke-miterlimit="10" d="
	M25.444,14.756c-1.339-0.011-2.316-1.017-2.29-2.355c0.027-1.278,1.039-2.247,2.342-2.24c1.323,0.008,2.374,1.051,2.351,2.333
	C27.824,13.797,26.795,14.765,25.444,14.756z"/>
<circle fill-rule="evenodd" clip-rule="evenodd" fill="none" stroke="#FFFFFF" stroke-width="0.75" stroke-miterlimit="10" cx="11.209" cy="7.856" r="4.424"/>
</svg>
