<?xml version="1.0" encoding="utf-8"?>
<!-- Generator: Adobe Illustrator 16.0.0, SVG Export Plug-In . SVG Version: 6.00 Build 0)  -->
<!DOCTYPE svg PUBLIC "-//W3C//DTD SVG 1.1//EN" "http://www.w3.org/Graphics/SVG/1.1/DTD/svg11.dtd">
<svg version="1.1" id="Шар_1" xmlns="http://www.w3.org/2000/svg" xmlns:xlink="http://www.w3.org/1999/xlink" x="0px" y="0px"
	 width="25.094px" height="28.267px" viewBox="0 0 25.094 28.267" enable-background="new 0 0 25.094 28.267" xml:space="preserve">
<path fill-rule="evenodd" clip-rule="evenodd" fill="none" stroke="#FFFFFF" stroke-width="0.55" stroke-miterlimit="10" d="
	M12.611,10.662c2.564,0,5.128,0.01,7.691-0.01c0.489-0.004,0.67,0.118,0.668,0.643c-0.021,3.406-0.01,6.813-0.013,10.219
	c-0.001,1.179-0.501,1.672-1.671,1.677c-1.186,0.004-1.186,0.004-1.186,1.194c0,0.659,0.01,1.318-0.002,1.978
	c-0.017,0.9-0.54,1.415-1.448,1.443c-1.925,0.059-2.286-0.291-2.286-2.218c0-0.66-0.01-1.319,0.003-1.979
	c0.007-0.302-0.103-0.427-0.413-0.422c-0.86,0.013-1.721,0.016-2.581-0.001c-0.359-0.008-0.423,0.169-0.419,0.473
	c0.012,0.823,0.009,1.648,0.002,2.473c-0.01,1.167-0.52,1.67-1.681,1.674c-0.257,0-0.515,0.014-0.769-0.008
	c-0.778-0.066-1.273-0.592-1.284-1.375c-0.012-0.915-0.013-1.832,0-2.747c0.005-0.345-0.11-0.506-0.474-0.489
	c-0.402,0.02-0.807,0.017-1.209-0.001c-0.798-0.034-1.302-0.498-1.304-1.263c-0.014-3.59-0.003-7.18-0.016-10.769
	c-0.002-0.45,0.229-0.498,0.589-0.497C7.41,10.665,10.011,10.662,12.611,10.662z"/>
<path fill-rule="evenodd" clip-rule="evenodd" fill="none" stroke="#FFFFFF" stroke-width="0.55" stroke-miterlimit="10" d="
	M12.52,9.7c-2.525,0-5.051,0.001-7.576,0C4.237,9.699,4.164,9.598,4.295,8.89c0.438-2.388,1.651-4.277,3.672-5.622
	c0.401-0.269,0.398-0.48,0.164-0.836c-0.313-0.473-0.606-0.96-0.868-1.461c-0.1-0.192-0.324-0.555-0.127-0.667
	c0.186-0.106,0.37,0.248,0.482,0.42C7.957,1.244,8.27,1.782,8.571,2.326c0.16,0.29,0.336,0.385,0.662,0.245
	c2.215-0.951,4.438-0.942,6.652-0.003c0.335,0.142,0.499,0.04,0.658-0.244c0.321-0.574,0.654-1.144,1.01-1.696
	c0.092-0.145,0.271-0.421,0.431-0.333c0.156,0.086,0.026,0.387-0.051,0.531c-0.293,0.548-0.605,1.087-0.944,1.607
	c-0.237,0.362-0.212,0.582,0.172,0.839c1.997,1.341,3.214,3.206,3.65,5.576C20.952,9.614,20.887,9.7,20.096,9.7
	C17.57,9.7,15.045,9.7,12.52,9.7z M8.297,7.056C8.827,7.066,9.262,6.68,9.29,6.172c0.028-0.507-0.428-0.989-0.944-1.001
	c-0.524-0.012-0.99,0.434-0.995,0.952C7.346,6.623,7.774,7.045,8.297,7.056z M17.219,6.11c-0.007-0.529-0.414-0.935-0.942-0.939
	c-0.548-0.007-0.968,0.428-0.949,0.981c0.017,0.53,0.431,0.919,0.967,0.909C16.823,7.051,17.226,6.636,17.219,6.11z"/>
<path fill-rule="evenodd" clip-rule="evenodd" fill="none" stroke="#FFFFFF" stroke-width="0.55" stroke-miterlimit="10" d="
	M0.297,16.073c0-1.245-0.004-2.489,0.001-3.735c0.003-0.985,0.422-1.451,1.294-1.458c1.318-0.011,1.772,0.337,1.779,1.432
	c0.013,2.526,0.014,5.053-0.001,7.579c-0.006,1.034-0.516,1.443-1.698,1.432c-0.928-0.01-1.369-0.473-1.374-1.459
	C0.293,18.6,0.297,17.337,0.297,16.073z"/>
<path fill-rule="evenodd" clip-rule="evenodd" fill="none" stroke="#FFFFFF" stroke-width="0.55" stroke-miterlimit="10" d="
	M24.808,16.114c0,1.245,0.003,2.49-0.002,3.735c-0.004,1.014-0.443,1.466-1.415,1.473c-1.16,0.006-1.654-0.416-1.658-1.474
	c-0.011-2.509-0.012-5.017,0.001-7.524c0.005-1.103,0.453-1.453,1.765-1.444c0.879,0.006,1.304,0.469,1.308,1.446
	C24.812,13.589,24.808,14.852,24.808,16.114z"/>
</svg>
