<?xml version="1.0" encoding="utf-8"?>
<!-- Generator: Adobe Illustrator 16.0.0, SVG Export Plug-In . SVG Version: 6.00 Build 0)  -->
<!DOCTYPE svg PUBLIC "-//W3C//DTD SVG 1.1//EN" "http://www.w3.org/Graphics/SVG/1.1/DTD/svg11.dtd">
<svg version="1.1" id="Шар_1" xmlns="http://www.w3.org/2000/svg" xmlns:xlink="http://www.w3.org/1999/xlink" x="0px" y="0px"
	 width="41px" height="41px" viewBox="0 0 41 41" enable-background="new 0 0 41 41" xml:space="preserve">
<path fill-rule="evenodd" clip-rule="evenodd" fill="none" stroke="#FFFFFF" stroke-width="0.55" stroke-miterlimit="10" d="
	M19.635,13.513c0.642,0,1.285,0,1.963,0c0.307-0.475,0.668-0.983,0.969-1.526c0.088-0.157,0.041-0.422-0.011-0.62
	c-0.524-2,0.474-3.841,2.38-4.372c1.893-0.526,3.701,0.565,4.285,2.542c0.076,0.258,0.334,0.54,0.58,0.658
	c1.232,0.593,2.22,1.432,2.934,2.606c1.248,2.052,2.5,4.1,3.777,6.133c2.434,3.88,1.197,9.002-2.752,11.327
	c-3.976,2.342-9.023,0.927-11.271-3.161c-0.107-0.194-0.203-0.396-0.234-0.456c-1.123,0-2.146,0-3.271,0
	c-0.78,1.659-2.056,3.056-3.868,3.925c-3.456,1.655-7.539,0.721-9.893-2.265c-2.377-3.016-2.283-7.096,0.039-10.165
	c1.156-1.528,2.048-3.262,2.998-4.938c0.756-1.334,1.761-2.353,3.16-2.995c0.2-0.093,0.395-0.354,0.455-0.574
	c0.54-1.994,2.348-3.15,4.223-2.669c1.939,0.497,2.966,2.328,2.482,4.385c-0.049,0.209-0.01,0.488,0.096,0.675
	C18.955,12.522,19.293,12.99,19.635,13.513z M29.677,18.022c-2.916-0.011-5.285,2.321-5.303,5.218
	c-0.017,2.874,2.384,5.302,5.24,5.298c2.956-0.003,5.277-2.339,5.279-5.309C34.896,20.373,32.551,18.033,29.677,18.022z
	 M11.615,18.022c-2.915-0.01-5.277,2.313-5.306,5.215c-0.028,2.867,2.377,5.304,5.233,5.301c2.955-0.003,5.274-2.331,5.288-5.306
	C16.844,20.389,14.484,18.032,11.615,18.022z M21.766,23.296c0.014-0.597-0.514-1.146-1.125-1.172
	c-0.604-0.024-1.149,0.502-1.162,1.118c-0.012,0.639,0.473,1.144,1.111,1.154C21.215,24.408,21.753,23.905,21.766,23.296z"/>
<path fill-rule="evenodd" clip-rule="evenodd" fill="none" stroke="#FFFFFF" stroke-width="0.55" stroke-miterlimit="10" d="
	M4.728,27.592c-2.435-3.879-1.198-9.002,2.751-11.327c3.977-2.342,9.024-0.927,11.272,3.16c0.107,0.195,0.203,0.396,0.234,0.457
	c1.122,0,2.146,0,3.271,0c0.78-1.659,2.055-3.056,3.868-3.925c3.456-1.654,7.539-0.721,9.893,2.265
	c2.377,3.017,2.282,7.095-0.04,10.165 M11.563,28.503c2.916,0.011,5.285-2.321,5.303-5.218c0.016-2.875-2.384-5.302-5.24-5.298
	c-2.956,0.003-5.277,2.338-5.279,5.309C6.344,26.151,8.688,28.492,11.563,28.503z M29.624,28.503
	c2.915,0.009,5.276-2.313,5.306-5.215c0.028-2.867-2.377-5.304-5.234-5.301c-2.954,0.003-5.273,2.331-5.287,5.306
	C24.395,26.137,26.754,28.493,29.624,28.503z M19.473,23.229c-0.013,0.598,0.515,1.147,1.125,1.173
	c0.604,0.024,1.15-0.501,1.162-1.118c0.012-0.639-0.473-1.143-1.111-1.154C20.023,22.117,19.486,22.62,19.473,23.229z"/>
<line fill="none" stroke="#FFFFFF" stroke-width="0.55" stroke-miterlimit="10" x1="19.625" y1="14.75" x2="19.25" y2="18.125"/>
<line fill="none" stroke="#FFFFFF" stroke-width="0.55" stroke-miterlimit="10" x1="21.125" y1="14.5" x2="21.5" y2="18.625"/>
<circle fill-rule="evenodd" clip-rule="evenodd" fill="none" stroke="#FFFFFF" stroke-width="0.7887" stroke-miterlimit="10" cx="20.625" cy="20.625" r="19.98"/>
</svg>
