<?xml version="1.0" encoding="utf-8"?>
<!-- Generator: Adobe Illustrator 16.0.0, SVG Export Plug-In . SVG Version: 6.00 Build 0)  -->
<!DOCTYPE svg PUBLIC "-//W3C//DTD SVG 1.1//EN" "http://www.w3.org/Graphics/SVG/1.1/DTD/svg11.dtd">
<svg version="1.1" id="Шар_1" xmlns="http://www.w3.org/2000/svg" xmlns:xlink="http://www.w3.org/1999/xlink" x="0px" y="0px"
	 width="41px" height="41px" viewBox="0 0 41 41" enable-background="new 0 0 41 41" xml:space="preserve">
<path fill-rule="evenodd" clip-rule="evenodd" fill="none" stroke="#FFFFFF" stroke-width="0.5857" stroke-miterlimit="10" d="
	M25.925,25.405c-3.453-0.896-6.831-1.344-10.324,0.052c0.085-1.616,0.26-3.244,0.447-4.669c0.348-3.613,0.823-7.156,1.425-10.807
	c0.289-1.757,0.381-1.741,2.194-1.741c0.957,0.001,1.916,0.019,2.875-0.008c0.451-0.011,0.668,0.134,0.749,0.59
	c0.755,3.124,1.519,6.963,1.742,9.326c0.164,1.756,0.471,3.959,0.743,6.101C25.805,24.484,25.905,25.043,25.925,25.405z
	 M20.637,14.452c1.086-0.001,1.971-0.881,1.966-1.954c-0.007-1.066-0.902-1.962-1.969-1.961c-1.088,0.001-1.939,0.866-1.939,1.97
	C18.696,13.62,19.53,14.455,20.637,14.452z"/>
<path fill-rule="evenodd" clip-rule="evenodd" fill="none" stroke="#FFFFFF" stroke-width="0.5857" stroke-miterlimit="10" d="
	M15.447,16.866c-0.159,1.824-0.385,4.037-0.615,5.422c-0.108,0.652-0.576,1.553-1.32,2.292c-1.262,1.253-2.283,2.751-3.404,4.147
	c-0.145,0.181-0.285,0.365-0.461,0.59C9,26.37,12.218,18.903,15.447,16.866z"/>
<path fill-rule="evenodd" clip-rule="evenodd" fill="none" stroke="#FFFFFF" stroke-width="0.5857" stroke-miterlimit="10" d="
	M25.896,16.866c0.159,1.824,0.383,4.037,0.613,5.422c0.11,0.652,0.574,1.553,1.321,2.292c1.263,1.253,2.283,2.751,3.405,4.147
	c0.143,0.181,0.285,0.365,0.458,0.59C32.341,26.37,29.125,18.903,25.896,16.866z"/>
<path fill-rule="evenodd" clip-rule="evenodd" fill="none" stroke="#FFFFFF" stroke-width="0.5857" stroke-miterlimit="10" d="
	M20.68,28.663c-1.03,0-2.063-0.018-3.093,0.007c-0.511,0.012-0.701-0.189-0.69-0.688c0.057-2.178-0.455-1.94,1.651-2.318
	c1.819-0.324,3.423-0.19,5.302,0.231c0.771,0.271,0.615,0.578,0.615,2.289c-0.033,0.593-0.662,0.516-0.996,0.518
	C22.438,28.708,21.711,28.663,20.68,28.663z"/>
<path fill-rule="evenodd" clip-rule="evenodd" fill="none" stroke="#FFFFFF" stroke-width="0.5857" stroke-miterlimit="10" d="
	M20.24,37.234c-0.958-1.742-1.407-3.414-1.386-5.42c0-1.078,0.818-2.256,1.922-2.189c2.333,0.035,2.026,2.702,1.769,4.087
	c-0.563,2.103-1.127,3.128-1.845,4.178C20.629,37.994,20.287,37.322,20.24,37.234z"/>
<path fill-rule="evenodd" clip-rule="evenodd" fill="none" stroke="#FFFFFF" stroke-width="0.5857" stroke-miterlimit="10" d="
	M22.929,7.356c-1.632,0-3.146,0-4.788,0c0.12-0.431,0.18-0.81,0.331-1.148c0.43-0.958,0.862-1.919,1.364-2.844
	c0.283-0.521,0.766-0.644,1.209-0.156C22.103,4.366,22.515,5.814,22.929,7.356z"/>
<circle fill-rule="evenodd" clip-rule="evenodd" fill="none" stroke="#FFFFFF" stroke-width="0.7887" stroke-miterlimit="10" cx="20.625" cy="20.5" r="19.98"/>
</svg>
