<?xml version="1.0" encoding="utf-8"?>
<!-- Generator: Adobe Illustrator 16.0.0, SVG Export Plug-In . SVG Version: 6.00 Build 0)  -->
<!DOCTYPE svg PUBLIC "-//W3C//DTD SVG 1.1//EN" "http://www.w3.org/Graphics/SVG/1.1/DTD/svg11.dtd">
<svg version="1.1" id="Шар_1" xmlns="http://www.w3.org/2000/svg" xmlns:xlink="http://www.w3.org/1999/xlink" x="0px" y="0px"
	 width="32px" height="32px" viewBox="0 0 32 32" enable-background="new 0 0 32 32" xml:space="preserve">
<path fill-rule="evenodd" clip-rule="evenodd" fill="none" stroke="#FFFFFF" stroke-width="0.75" stroke-miterlimit="10" d="
	M14.494,30.737c-1.309-0.28-2.423-1.104-3.163-2.322c-0.588-0.969-0.707-2.072-0.971-3.128c-0.538-2.159-1-4.338-1.503-6.504
	c-0.332-1.43,0.011-2.249,1.32-2.983c1.007-0.565,2.417-0.786,3.256-0.865c1.771-0.168,4.76-0.271,7.115,0.237
	c0.643,0.139,1.249,0.389,1.798,0.75c1.135,0.744,1.419,1.473,1.105,2.803c-0.643,2.731-1.286,5.464-1.934,8.195
	c-0.52,2.191-2.021,3.542-4.12,3.817C16.438,30.863,15.44,30.94,14.494,30.737z"/>
<path fill-rule="evenodd" clip-rule="evenodd" fill="none" stroke="#FFFFFF" stroke-width="0.75" stroke-miterlimit="10" d="
	M2.497,17.663c0.398-2.183,3.227-2.425,5.547-1.678c-1.553,0.99,0.185,5.556,1.383,10.93c0.046,0.209,0.268,0.527-0.167,0.515
	c-1.186-0.033-2.399,0.297-3.537-0.359c-1.08-0.622-1.526-1.604-1.805-2.743C3.461,22.447,2.299,18.746,2.497,17.663z"/>
<path fill-rule="evenodd" clip-rule="evenodd" fill="none" stroke="#FFFFFF" stroke-width="0.75" stroke-miterlimit="10" d="
	M29.681,17.663c-0.398-2.183-3.227-2.425-5.547-1.678c1.553,0.99-0.184,5.556-1.383,10.93c-0.046,0.209-0.268,0.527,0.167,0.515
	c1.185-0.033,2.398,0.297,3.538-0.359c1.079-0.622,1.525-1.604,1.804-2.743C28.718,22.447,29.879,18.746,29.681,17.663z"/>
<path fill-rule="evenodd" clip-rule="evenodd" fill="none" stroke="#FFFFFF" stroke-width="0.75" stroke-miterlimit="10" d="
	M7.97,14.565c-1.766-0.004-3.158-1.357-3.188-3.101C4.75,9.703,6.196,8.271,8.004,8.271c1.839,0,3.221,1.366,3.21,3.172
	C11.202,13.263,9.843,14.569,7.97,14.565z"/>
<path fill-rule="evenodd" clip-rule="evenodd" fill="none" stroke="#FFFFFF" stroke-width="0.75" stroke-miterlimit="10" d="
	M24.107,14.565c-1.836-0.014-3.177-1.393-3.139-3.228c0.036-1.753,1.426-3.081,3.21-3.071c1.814,0.012,3.254,1.44,3.223,3.199
	C27.369,13.252,25.96,14.578,24.107,14.565z"/>
<circle fill-rule="evenodd" clip-rule="evenodd" fill="none" stroke="#FFFFFF" stroke-width="0.75" stroke-miterlimit="10" cx="16.209" cy="8.481" r="4.424"/>
<text transform="matrix(1 0 0 1 14.0156 23.1016)" fill="#FFFFFF" font-family="'FuturaDemiC'" font-size="7.2721">1</text>
<text transform="matrix(0.9912 -0.1321 0.1321 0.9912 5.502 23.1299)" fill="#FFFFFF" font-family="'FuturaMediumC'" font-size="3.9006">2</text>
<text transform="matrix(0.9875 0.1574 -0.1574 0.9875 24.4824 22.8574)" fill="#FFFFFF" font-family="'FuturaMediumC'" font-size="3.9006">3</text>
</svg>
