<?xml version="1.0" encoding="utf-8"?>
<!-- Generator: Adobe Illustrator 16.0.0, SVG Export Plug-In . SVG Version: 6.00 Build 0)  -->
<!DOCTYPE svg PUBLIC "-//W3C//DTD SVG 1.1//EN" "http://www.w3.org/Graphics/SVG/1.1/DTD/svg11.dtd">
<svg version="1.1" id="Шар_1" xmlns="http://www.w3.org/2000/svg" xmlns:xlink="http://www.w3.org/1999/xlink" x="0px" y="0px"
	 width="32px" height="32px" viewBox="0 0 32 32" enable-background="new 0 0 32 32" xml:space="preserve">
<path fill-rule="evenodd" clip-rule="evenodd" fill="none" stroke="#FFFFFF" stroke-width="0.75" stroke-miterlimit="10" d="
	M5.938,28.563V5.188c0-1.104,0.896-2,2-2h9.125c1.104,0,2,0.896,2,2v23.375H5.938z"/>
<rect x="8.219" y="5.906" fill-rule="evenodd" clip-rule="evenodd" fill="none" stroke="#FFFFFF" stroke-width="0.75" stroke-miterlimit="10" width="2.75" height="3.563"/>
<rect x="13.969" y="5.906" fill-rule="evenodd" clip-rule="evenodd" fill="none" stroke="#FFFFFF" stroke-width="0.75" stroke-miterlimit="10" width="2.75" height="3.563"/>
<rect x="8.219" y="11.489" fill-rule="evenodd" clip-rule="evenodd" fill="none" stroke="#FFFFFF" stroke-width="0.75" stroke-miterlimit="10" width="2.75" height="3.563"/>
<rect x="13.969" y="11.489" fill-rule="evenodd" clip-rule="evenodd" fill="none" stroke="#FFFFFF" stroke-width="0.75" stroke-miterlimit="10" width="2.75" height="3.563"/>
<rect x="8.219" y="16.928" fill-rule="evenodd" clip-rule="evenodd" fill="none" stroke="#FFFFFF" stroke-width="0.75" stroke-miterlimit="10" width="2.75" height="3.563"/>
<rect x="13.969" y="16.928" fill-rule="evenodd" clip-rule="evenodd" fill="none" stroke="#FFFFFF" stroke-width="0.75" stroke-miterlimit="10" width="2.75" height="3.563"/>
<rect x="8.219" y="22.594" fill-rule="evenodd" clip-rule="evenodd" fill="none" stroke="#FFFFFF" stroke-width="0.75" stroke-miterlimit="10" width="2.75" height="3.563"/>
<rect x="13.969" y="22.594" fill-rule="evenodd" clip-rule="evenodd" fill="none" stroke="#FFFFFF" stroke-width="0.75" stroke-miterlimit="10" width="2.75" height="3.563"/>
<path fill-rule="evenodd" clip-rule="evenodd" fill="none" stroke="#FFFFFF" stroke-width="0.75" stroke-miterlimit="10" d="
	M27.062,15.136l0.011,7.619l-4.384,0.013l0.072-5.234l0.003-3.176l-0.04-1.502c0-1.24,0-2.494,0-3.734
	c-0.001-0.069,0-0.137-0.001-0.232c-0.079,0-0.145,0.001-0.211,0.001c-0.56-0.006-1.121,0.008-1.68-0.006
	c-0.284-0.007-0.473-0.155-0.494-0.385c-0.009-0.108,0.018-0.252,0.086-0.33c1.408-1.64,4.307-5.01,4.307-5.01
	s2.998,3.459,4.301,4.963c0.197,0.227,0.128,0.582-0.156,0.689c-0.156,0.061-0.334,0.08-0.502,0.085
	c-0.469,0.009-0.646,0.002-1.114,0.003c-0.06,0-0.122,0.005-0.201,0.009c0,0.081,0,0.147,0,0.216
	C27.058,10.37,27.062,15.136,27.062,15.136z"/>
<polygon fill-rule="evenodd" clip-rule="evenodd" fill="none" stroke="#FFFFFF" stroke-width="0.5" stroke-miterlimit="10" points="
	24.841,24.286 25.5,25.621 26.974,25.835 25.907,26.875 26.159,28.343 24.841,27.649 23.522,28.343 23.774,26.875 22.708,25.835 
	24.182,25.621 "/>
</svg>
