<?xml version="1.0" encoding="utf-8"?>
<!-- Generator: Adobe Illustrator 16.0.0, SVG Export Plug-In . SVG Version: 6.00 Build 0)  -->
<!DOCTYPE svg PUBLIC "-//W3C//DTD SVG 1.1//EN" "http://www.w3.org/Graphics/SVG/1.1/DTD/svg11.dtd">
<svg version="1.1" id="Шар_1" xmlns="http://www.w3.org/2000/svg" xmlns:xlink="http://www.w3.org/1999/xlink" x="0px" y="0px"
	 width="28.351px" height="28.347px" viewBox="-0.02 -0.798 28.351 28.347" enable-background="new -0.02 -0.798 28.351 28.347"
	 xml:space="preserve">
<path fill-rule="evenodd" clip-rule="evenodd" fill="none" stroke="#FFFFFF" stroke-width="0.55" stroke-miterlimit="10" d="
	M13.996,27.47c-2.039-0.001-4.076-0.005-6.113,0.003c-0.645,0.003-1.186-0.064-1.178-0.917c0.008-0.858,0.58-0.906,1.205-0.907
	c4.074-0.001,8.148,0,12.225-0.001c0.638,0,1.188,0.083,1.179,0.932c-0.009,0.857-0.571,0.896-1.206,0.894
	C18.07,27.466,16.033,27.47,13.996,27.47z"/>
<path fill-rule="evenodd" clip-rule="evenodd" fill="none" stroke="#FFFFFF" stroke-width="0.55" stroke-miterlimit="10" d="
	M25.123,3.9c0.37-0.002,0.74-0.005,1.11-0.008c1.44-0.01,1.833,0.481,1.818,1.868c-0.065,5.528-0.075,11.059,0.004,16.586
	c0.022,1.544-0.557,1.921-1.984,1.895c-3.971-0.072-7.942-0.024-11.916-0.024c-3.972,0-7.945-0.048-11.916,0.024
	c-1.428,0.026-2.005-0.353-1.983-1.896c0.08-5.527,0.07-11.058,0.004-16.586C0.244,4.373,0.641,3.883,2.08,3.893
	c4.932,0.036,9.863,0.051,14.795,0.043"/>
<path fill-rule="evenodd" clip-rule="evenodd" fill="none" stroke="#FFFFFF" stroke-width="0.55" stroke-miterlimit="10" d="
	M2.902,20.941c0.233-0.171,0.407-0.297,0.58-0.423c2.111-1.542,3.261-3.597,3.314-6.23c0.049-2.357,1.814-4.166,4.027-4.119
	c2.325,0.051,4.051,1.986,3.925,4.403c-0.29,5.557-6.18,9.086-11.211,6.717C3.344,21.197,3.161,21.083,2.902,20.941z"/>
<path fill-rule="evenodd" clip-rule="evenodd" fill="none" stroke="#FFFFFF" stroke-width="0.55" stroke-miterlimit="10" d="
	M16.016,13.108c-0.283-2.198-1.986-4.183-4.184-4.183c0.118-0.144,0.477-0.509,0.566-0.599c2.666-2.669,5.32-5.35,8.006-7.998
	c1.691-1.67,4.427-0.979,5.019,1.247c0.271,1.021,0.112,1.999-0.648,2.769c-2.747,2.775-5.52,5.526-8.281,8.286
	C16.448,12.677,16.15,13.014,16.016,13.108z"/>
<path fill-rule="evenodd" clip-rule="evenodd" fill="none" stroke="#FFFFFF" stroke-width="0.55" stroke-miterlimit="10" d="
	M2.902,20.941c0,0,2.76,0.321,4.461-2.798"/>
<path fill-rule="evenodd" clip-rule="evenodd" fill="none" stroke="#FFFFFF" stroke-width="0.55" stroke-miterlimit="10" d="
	M3.541,21.126c0,0,4.391,0.704,7.369-3.125"/>
<path fill-rule="evenodd" clip-rule="evenodd" fill="none" stroke="#FFFFFF" stroke-width="0.55" stroke-miterlimit="10" d="
	M16.512,4.104c0,0,3.83-0.143,4.396,4.112"/>
</svg>
