<?xml version="1.0" encoding="utf-8"?>
<!-- Generator: Adobe Illustrator 16.0.0, SVG Export Plug-In . SVG Version: 6.00 Build 0)  -->
<!DOCTYPE svg PUBLIC "-//W3C//DTD SVG 1.1//EN" "http://www.w3.org/Graphics/SVG/1.1/DTD/svg11.dtd">
<svg version="1.1" id="Шар_1" xmlns="http://www.w3.org/2000/svg" xmlns:xlink="http://www.w3.org/1999/xlink" x="0px" y="0px"
	 width="27.5px" height="27.25px" viewBox="0 0 27.5 27.25" enable-background="new 0 0 27.5 27.25" xml:space="preserve">
<path fill-rule="evenodd" clip-rule="evenodd" fill="none" stroke="#FFFFFF" stroke-width="0.55" stroke-miterlimit="10" d="
	M0.59,25.704c0.274-0.2,0.479-0.349,0.682-0.497c2.48-1.812,3.832-4.227,3.896-7.321c0.058-2.771,2.132-4.896,4.732-4.841
	c2.732,0.06,4.761,2.334,4.612,5.175c-0.34,6.529-7.262,10.677-13.175,7.893C1.108,26.005,0.894,25.871,0.59,25.704z"/>
<path fill-rule="evenodd" clip-rule="evenodd" fill="none" stroke="#FFFFFF" stroke-width="0.55" stroke-miterlimit="10" d="
	M16.001,16.499c-0.334-2.583-2.334-4.916-4.917-4.916c0.139-0.168,0.56-0.598,0.665-0.703c3.134-3.137,6.253-6.287,9.409-9.399
	c1.988-1.962,5.202-1.15,5.897,1.466c0.318,1.2,0.132,2.35-0.762,3.254c-3.229,3.261-6.486,6.494-9.732,9.737
	C16.509,15.991,16.158,16.388,16.001,16.499z"/>
<path fill-rule="evenodd" clip-rule="evenodd" fill="none" stroke="#FFFFFF" stroke-width="0.55" stroke-miterlimit="10" d="
	M0.59,25.704c0,0,3.243,0.378,5.243-3.288"/>
<path fill-rule="evenodd" clip-rule="evenodd" fill="none" stroke="#FFFFFF" stroke-width="0.55" stroke-miterlimit="10" d="
	M1.34,25.921c0,0,5.16,0.828,8.66-3.672"/>
<path fill-rule="evenodd" clip-rule="evenodd" fill="none" stroke="#FFFFFF" stroke-width="0.55" stroke-miterlimit="10" d="
	M16.584,5.916c0,0,4.5-0.167,5.167,4.833"/>
</svg>
