<?xml version="1.0" encoding="utf-8"?>
<!-- Generator: Adobe Illustrator 16.0.0, SVG Export Plug-In . SVG Version: 6.00 Build 0)  -->
<!DOCTYPE svg PUBLIC "-//W3C//DTD SVG 1.1//EN" "http://www.w3.org/Graphics/SVG/1.1/DTD/svg11.dtd">
<svg version="1.1" id="Шар_1" xmlns="http://www.w3.org/2000/svg" xmlns:xlink="http://www.w3.org/1999/xlink" x="0px" y="0px"
	 width="41px" height="41px" viewBox="0 0 41 41" enable-background="new 0 0 41 41" xml:space="preserve">
<path fill-rule="evenodd" clip-rule="evenodd" fill="none" stroke="#FFFFFF" stroke-width="0.55" stroke-miterlimit="10" d="
	M6.901,9.648c0.008-0.008,0.021-0.013,0.025-0.022C7.293,8.485,8.125,8.133,9.26,8.135c7.759,0.018,15.519,0.01,23.279,0.01
	c1.102,0,1.789,0.468,2.049,1.415c0.056,0.208,0.063,0.435,0.063,0.653c0.003,5.556,0.005,11.111,0.002,16.668
	c-0.001,1.352-0.736,2.075-2.099,2.075c-2.831,0-5.661,0-8.492,0.001c-0.147,0-0.295,0-0.479,0c-0.072,0.938-0.009,1.809,0.48,2.608
	c0.522,0.853,1.475,1.122,2.096,1.219c0.212,0.034,0.199,1.134,0.199,1.752c-0.117,0.007-0.228,0.018-0.34,0.018
	c-3.479,0.001-6.96-0.003-10.439,0.009c-0.314,0.001-0.402-0.094-0.385-0.394c0.023-0.394,0.015-0.79,0.003-1.183
	c-0.006-0.21,0.075-0.284,0.279-0.299c1.628-0.116,2.32-1.283,2.485-2.654c0.04-0.338,0.006-0.687,0.006-1.074
	c-0.189,0-0.359,0-0.531,0c-2.666,0-5.336-0.034-8.002,0.014c-1.204,0.022-2.118-0.286-2.534-1.509
	C6.901,21.525,6.901,15.587,6.901,9.648z"/>
<path fill-rule="evenodd" clip-rule="evenodd" fill="none" stroke="#FFFFFF" stroke-width="0.55" stroke-miterlimit="10" d="
	M8.86,24.521c7.976,0,15.89,0,23.836,0c0-0.153,0-0.278,0-0.403c0-4.523-0.003-9.048,0.009-13.57c0-0.351-0.093-0.45-0.448-0.449
	c-7.653,0.009-15.308,0.009-22.963,0c-0.362-0.001-0.441,0.116-0.441,0.458c0.012,4.523,0.008,9.047,0.008,13.569
	C8.86,24.251,8.86,24.375,8.86,24.521z"/>
<path fill-rule="evenodd" clip-rule="evenodd" fill="none" stroke="#FFFFFF" stroke-width="0.55" stroke-miterlimit="10" d="
	M20.97,25.715c0.549,0.023,0.938,0.461,0.912,1.019c-0.027,0.53-0.464,0.933-0.986,0.909c-0.529-0.022-0.979-0.498-0.949-1.001
	C19.981,26.104,20.438,25.692,20.97,25.715z"/>
<path fill-rule="evenodd" clip-rule="evenodd" fill="none" stroke="#FFFFFF" stroke-width="0.55" stroke-miterlimit="10" d="
	M20.867,21.654c0.381,0,0.763-0.001,1.145,0.001c0.197,0.001,0.277,0.083,0.271,0.277c-0.013,0.351-0.192,0.616-0.464,0.814
	c-0.576,0.419-1.364,0.417-1.938-0.007c-0.266-0.198-0.438-0.464-0.455-0.811c-0.008-0.185,0.082-0.275,0.275-0.275
	C20.09,21.653,20.478,21.653,20.867,21.654C20.867,21.654,20.867,21.654,20.867,21.654z"/>
<path fill-rule="evenodd" clip-rule="evenodd" fill="none" stroke="#FFFFFF" stroke-width="0.55" stroke-miterlimit="10" d="
	M20.846,20.129c0.439,0,0.881,0,1.322,0c0.125,0.003,0.233,0.05,0.299,0.184c0.061,0.122,0.057,0.25-0.01,0.37
	c-0.074,0.138-0.19,0.166-0.315,0.166c-0.659,0.004-1.317,0.004-1.976,0.004c-0.222,0-0.441,0-0.663-0.004
	c-0.124-0.001-0.229-0.053-0.294-0.188c-0.062-0.126-0.051-0.251,0.016-0.369c0.075-0.134,0.192-0.162,0.318-0.162
	C19.978,20.129,20.412,20.129,20.846,20.129z"/>
<path fill-rule="evenodd" clip-rule="evenodd" fill="none" stroke="#FFFFFF" stroke-width="0.55" stroke-miterlimit="10" d="
	M20.861,19.377c-0.539,0-1.08-0.003-1.619,0.001c-0.119,0.001-0.17-0.033-0.188-0.164c-0.078-0.563-0.17-1.127-0.429-1.638
	c-0.174-0.345-0.38-0.675-0.596-0.995c-0.272-0.408-0.537-0.814-0.611-1.312c-0.107-0.75-0.036-1.475,0.336-2.151
	c0.514-0.938,1.324-1.487,2.356-1.683c1.282-0.239,2.433,0.062,3.359,1.014c0.631,0.647,0.883,1.449,0.865,2.35
	c-0.013,0.631-0.227,1.178-0.588,1.68c-0.318,0.441-0.633,0.889-0.793,1.415c-0.116,0.385-0.192,0.782-0.279,1.175
	c-0.08,0.356,0.028,0.302-0.351,0.307C21.836,19.383,21.349,19.378,20.861,19.377L20.861,19.377z"/>
<circle fill-rule="evenodd" clip-rule="evenodd" fill="none" stroke="#FFFFFF" stroke-width="0.7887" stroke-miterlimit="10" cx="20.625" cy="20.5" r="19.98"/>
</svg>
