<?xml version="1.0" encoding="utf-8"?>
<!-- Generator: Adobe Illustrator 16.0.0, SVG Export Plug-In . SVG Version: 6.00 Build 0)  -->
<!DOCTYPE svg PUBLIC "-//W3C//DTD SVG 1.1//EN" "http://www.w3.org/Graphics/SVG/1.1/DTD/svg11.dtd">
<svg version="1.1" id="Шар_1" xmlns="http://www.w3.org/2000/svg" xmlns:xlink="http://www.w3.org/1999/xlink" x="0px" y="0px"
	 width="23.334px" height="27.75px" viewBox="0 0 23.334 27.75" enable-background="new 0 0 23.334 27.75" xml:space="preserve">
<path fill-rule="evenodd" clip-rule="evenodd" fill="none" stroke="#FFFFFF" stroke-width="0.55" stroke-miterlimit="10" d="
	M22.002,9.889c-3.977,4.357-3.775,6.808,0.896,10.426c-1.119,2.305-2.304,4.584-4.372,6.244c-1,0.805-2.158,1.052-3.338,0.442
	c-2.042-1.052-4.035-1.012-6.083-0.006c-1.556,0.764-2.933,0.198-4.063-0.915c-2.326-2.292-3.73-5.102-4.386-8.291
	c-0.351-1.704-0.378-3.41,0.011-5.112c0.733-3.211,3.77-5.68,6.863-5.507C8.271,7.212,9.035,7.417,9.731,7.69
	c1.593,0.625,3.105,0.594,4.718-0.026C17.485,6.494,20.381,7.391,22.002,9.889z"/>
<path fill-rule="evenodd" clip-rule="evenodd" fill="none" stroke="#FFFFFF" stroke-width="0.55" stroke-miterlimit="10" d="
	M16.506,0.566c0.863,2.974-2.04,6.824-4.799,6.702c-0.789-0.034-0.666-0.642-0.617-1.094c0.221-2.037,1.232-3.607,3.004-4.622
	C14.82,1.139,15.65,0.909,16.506,0.566z"/>
</svg>
