<?xml version="1.0" encoding="utf-8"?>
<!-- Generator: Adobe Illustrator 16.0.0, SVG Export Plug-In . SVG Version: 6.00 Build 0)  -->
<!DOCTYPE svg PUBLIC "-//W3C//DTD SVG 1.1//EN" "http://www.w3.org/Graphics/SVG/1.1/DTD/svg11.dtd">
<svg version="1.1" id="Шар_1" xmlns="http://www.w3.org/2000/svg" xmlns:xlink="http://www.w3.org/1999/xlink" x="0px" y="0px"
	 width="35px" height="59.479px" viewBox="0 0 35 59.479" enable-background="new 0 0 35 59.479" xml:space="preserve">
<g>
	<defs>
		<rect id="SVGID_1_" width="35.008" height="59.471"/>
	</defs>
	<clipPath id="SVGID_2_">
		<use xlink:href="#SVGID_1_"  overflow="visible"/>
	</clipPath>
	<rect x="-0.553" y="0.125" clip-path="url(#SVGID_2_)" fill="none" width="35.125" height="59.125"/>
	<g clip-path="url(#SVGID_2_)">
		<path fill-rule="evenodd" clip-rule="evenodd" fill="#ED6C57" d="M34.97,59.421c-11.771,0-23.474,0-35.183,0
			c0-19.82,0-39.64,0-59.479c11.727,0,23.462,0,35.183,0C34.97,19.754,34.97,39.588,34.97,59.421z"/>
	</g>
	<g clip-path="url(#SVGID_2_)">
		<defs>
			<path id="SVGID_3_" d="M34.499,59.219c-11.685,0-23.3,0-34.923,0c0-19.764,0-39.528,0-59.312c11.641,0,23.288,0,34.923,0
				C34.499,19.664,34.499,39.441,34.499,59.219z"/>
		</defs>
		<clipPath id="SVGID_4_">
			<use xlink:href="#SVGID_3_"  overflow="visible"/>
		</clipPath>
		<g clip-path="url(#SVGID_4_)">
			<polygon fill="#E86557" points="8.469,42.177 8.469,-0.448 12.75,-0.479 12.75,37.896 			"/>
			<polygon fill="#EF6D61" points="2.875,51.146 2.875,-0.198 5.448,-0.198 5.448,43.552 			"/>
			<polygon fill="#E86557" points="23.439,47.271 23.439,-0.479 28.458,-0.479 29.084,41.521 			"/>
			<polygon fill="#EF6D61" points="20.045,42.563 20.045,-0.479 23.396,-0.479 23.396,45.75 			"/>
		</g>
	</g>
	<polygon clip-path="url(#SVGID_2_)" fill="#FFFFFF" points="13.704,43.146 13.704,59.479 21.922,59.479 21.922,42.668 	"/>
	<polygon clip-path="url(#SVGID_2_)" fill="#FFFFFF" points="-0.291,43.146 -0.291,59.479 9.455,59.479 9.455,42.979 	"/>
	<polygon clip-path="url(#SVGID_2_)" fill="#CBCCC2" points="14.365,43.479 14.365,59.479 8.97,59.479 8.97,43.313 	"/>
	<polygon clip-path="url(#SVGID_2_)" fill="#FFFFFF" points="26.658,43.313 26.658,59.479 34.938,59.479 34.938,42.646 	"/>
	<polygon clip-path="url(#SVGID_2_)" fill="#CBCCC2" points="26.781,42.813 26.781,59.479 21.922,59.479 21.922,43.645 	"/>
	
		<line clip-path="url(#SVGID_2_)" fill="none" stroke="#232323" stroke-width="3" stroke-miterlimit="10" x1="-0.291" y1="43.146" x2="35" y2="43.146"/>
	<g clip-path="url(#SVGID_2_)">
		<path fill-rule="evenodd" clip-rule="evenodd" fill="#FFFFFF" d="M12.184,23.129c0,0-7.26,3.604-8.531,8.532
			c-1.157,4.483,0.69,11.232,14.549,11.232c13.856,0,14.758-8.795,12.267-13.087c-2.491-4.293-8.056-6.678-8.056-6.678H12.184z"/>
		<path fill-rule="evenodd" clip-rule="evenodd" fill="#BFC1A9" d="M12.875,23.23c0,0-6.433,3.562-7.667,8.5
			c-1.583,6.333,1.043,11.417,14.876,11.084c0,0-11.584-0.709-11.584-9.959C8.5,25.784,12.875,23.23,12.875,23.23z"/>
		<path fill-rule="evenodd" clip-rule="evenodd" fill="#CBCCC2" d="M22.092,23.23c0,0,6.433,3.562,7.667,8.5
			c1.583,6.333-4.175,10.584-6.925,10.584c0,0,4.834-1.667,4.834-9.334C27.668,25.909,22.092,23.23,22.092,23.23z"/>
		<path fill-rule="evenodd" clip-rule="evenodd" fill="#232323" d="M14.844,33.582c0.191-0.009,0.466,0.201,0.767,0.328
			c0.929,0.388,1.878,0.643,2.892,0.401c0.363-0.087,0.75-0.213,0.783-0.659c0.035-0.464-0.357-0.638-0.704-0.73
			c-0.747-0.204-1.514-0.339-2.271-0.512c-0.475-0.109-0.928-0.275-1.35-0.526c-1.113-0.66-1.174-2.092-0.106-2.83
			c0.472-0.326,1.007-0.503,1.572-0.578c0.275-0.037,0.481-0.096,0.486-0.44c0.005-0.464,0.342-0.59,0.718-0.576
			c0.35,0.015,0.661,0.165,0.668,0.583c0.006,0.341,0.21,0.404,0.479,0.46c0.532,0.112,1.056,0.251,1.552,0.488
			c0.285,0.137,0.426,0.33,0.396,0.638c-0.029,0.324-0.264,0.452-0.543,0.527c-0.317,0.086-0.609,0.002-0.905-0.114
			c-0.689-0.271-1.396-0.485-2.153-0.436c-0.255,0.017-0.498,0.065-0.736,0.159c-0.263,0.105-0.42,0.273-0.426,0.562
			c-0.005,0.28,0.117,0.469,0.375,0.6c0.515,0.259,1.08,0.314,1.629,0.43c0.629,0.132,1.257,0.258,1.855,0.495
			c0.867,0.343,1.287,0.887,1.289,1.662c0.002,0.778-0.414,1.348-1.254,1.694c-0.232,0.096-0.475,0.182-0.719,0.233
			c-0.434,0.093-0.873,0.097-0.885,0.75c-0.006,0.294-0.37,0.435-0.684,0.412c-0.326-0.023-0.652-0.131-0.646-0.529
			c0.007-0.455-0.266-0.545-0.617-0.595c-0.7-0.099-1.363-0.32-1.988-0.64c-0.286-0.146-0.643-0.318-0.516-0.737
			C13.928,33.688,14.291,33.589,14.844,33.582z"/>
		<path fill-rule="evenodd" clip-rule="evenodd" fill="#CBCCC2" d="M9.959,17.425l2.162,3.806h10.254l2.162-3.775
			c0,0-0.412-0.818-2.271-0.923c-1.831-0.103-2.516,0.761-2.516,0.761s-1.195-0.713-2.322-0.761
			c-1.128-0.046-2.631,0.751-2.631,0.751S11.367,15.781,9.959,17.425z"/>
		<path fill-rule="evenodd" clip-rule="evenodd" fill="#BFC1A9" d="M10.667,16.918l1.646,4.375l3.5-0.063l-1.021-3.958l0.864-0.37
			l0.761,5.703l-4.125,0.063l-2.313-5.25c0,0,0.22-0.217,0.302-0.281C10.5,16.965,10.667,16.918,10.667,16.918z"/>
		<path fill-rule="evenodd" clip-rule="evenodd" fill="#BFC1A9" d="M23.854,16.918l-1.646,4.375l-3.5-0.063l1.021-3.958l-0.864-0.37
			l-0.761,5.703l4.125,0.063l2.313-5.25c0,0-0.22-0.217-0.302-0.281C24.021,16.965,23.854,16.918,23.854,16.918z"/>
		<polygon fill-rule="evenodd" clip-rule="evenodd" fill="#FFFFFF" points="17.969,21.418 17.797,21.418 17.652,16.543 
			18.152,16.637 		"/>
		<path fill-rule="evenodd" clip-rule="evenodd" fill="#FFFFFF" d="M12.25,16.668l1.583,4.396l2.042,0.125l-1.083-3.916
			c0,0-0.972-0.354-1.308-0.433C13.181,16.77,12.25,16.668,12.25,16.668z"/>
		<path fill-rule="evenodd" clip-rule="evenodd" fill="#FFFFFF" d="M23.813,16.876l-1.433,4.188l-2.089,0.167l1.271-4.688
			c0,0,0.646-0.083,1.166,0C23.126,16.606,23.813,16.876,23.813,16.876z"/>
		<path fill-rule="evenodd" clip-rule="evenodd" fill="#232323" d="M22.73,22.333c0,0.469-0.38,0.848-0.849,0.848h-9.326
			c-0.469,0-0.848-0.379-0.848-0.848v-0.437c0-0.469,0.379-0.849,0.848-0.849h9.326c0.469,0,0.849,0.38,0.849,0.849V22.333z"/>
	</g>
</g>
</svg>
