<?xml version="1.0" encoding="utf-8"?>
<!-- Generator: Adobe Illustrator 16.0.0, SVG Export Plug-In . SVG Version: 6.00 Build 0)  -->
<!DOCTYPE svg PUBLIC "-//W3C//DTD SVG 1.1//EN" "http://www.w3.org/Graphics/SVG/1.1/DTD/svg11.dtd">
<svg version="1.1" id="Шар_1" xmlns="http://www.w3.org/2000/svg" xmlns:xlink="http://www.w3.org/1999/xlink" x="0px" y="0px"
	 width="31.75px" height="59.479px" viewBox="0 0 31.75 59.479" enable-background="new 0 0 31.75 59.479" xml:space="preserve">
<g>
	<defs>
		<path id="SVGID_1_" d="M-3.173,59.352c11.685,0,23.3,0,34.923,0c0-19.764,0-39.528,0-59.312c-11.641,0-23.288,0-34.923,0
			C-3.173,19.797-3.173,39.574-3.173,59.352z"/>
	</defs>
	<clipPath id="SVGID_2_">
		<use xlink:href="#SVGID_1_"  overflow="visible"/>
	</clipPath>
	<g clip-path="url(#SVGID_2_)">
		<path fill-rule="evenodd" clip-rule="evenodd" fill="none" d="M31.873,59.396c-10.615,0-21.169,0-31.729,0
			c0-19.779,0-39.558,0-59.355c10.577,0,21.16,0,31.729,0C31.873,19.813,31.873,39.604,31.873,59.396z"/>
	</g>
	<g clip-path="url(#SVGID_2_)">
		<g>
			<path fill-rule="evenodd" clip-rule="evenodd" fill="#ED6C57" d="M31.751,59.479c-10.606,0-21.149,0-31.7,0
				c0-19.808,0-39.616,0-59.442c10.566,0,21.141,0,31.7,0C31.751,19.839,31.751,39.658,31.751,59.479z"/>
		</g>
	</g>
	<g clip-path="url(#SVGID_2_)">
		<polygon fill="#E86557" points="23.377,50.861 23.377,-0.315 18.576,-0.347 18.576,50.194 		"/>
		<polygon fill="#EF6D61" points="28.451,51.278 28.451,-0.065 25.878,-0.065 25.878,50.861 		"/>
		<polygon fill="#E86557" points="9.553,47.403 9.553,-0.347 4.534,-0.347 3.908,50.194 		"/>
		<polygon fill="#EF6D61" points="12.78,50.444 12.78,-0.347 9.43,-0.347 9.43,49.361 		"/>
	</g>
</g>
<path fill="#CBCCC2" d="M30.968,56.631c0,1.524-1.126,2.762-2.513,2.762h-6.863c-1.388,0-2.514-1.237-2.514-2.762
	c0,0,0.574-5.984,1.046-7.48c0.473-1.495,1.127-2.761,2.516-2.761h0.849h3.224h0.904c1.388,0,2.146,0.92,2.513,2.761
	C30.496,50.993,30.968,56.631,30.968,56.631z"/>
<path fill="#ABABA4" d="M25.078,59.4l-3.486-0.008c-1.388,0-2.514-1.237-2.514-2.762c0,0,0.574-5.984,1.046-7.48
	c0.473-1.495,1.127-2.761,2.516-2.761h0.849l1.545-0.015L25.078,59.4z"/>
<path fill="#BFC1A9" d="M30.968,56.631l-2.881,0.001L26.712,46.39h0.904c1.388,0,2.146,0.92,2.513,2.761
	C30.496,50.993,30.968,56.631,30.968,56.631z"/>
<path fill="#BFC1A9" d="M19.078,56.631c0,0,0.574-5.984,1.046-7.48c0.473-1.495,1.127-2.761,2.516-2.761l0.849-0.003L22.112,56.64
	L19.078,56.631z"/>
<g>
	<circle fill="#FFFFFF" cx="25.023" cy="40.86" r="4.819"/>
</g>
<g>
	<path fill="#BFC1A9" d="M29.842,40.86l-3.285-2.957c0,0-0.7,1.16-2.566,2.005c-1.8,0.813-3.786,0.952-3.786,0.952
		c0-2.661,2.156-4.817,4.818-4.817S29.842,38.199,29.842,40.86z"/>
</g>
<path fill="#CBCCC2" d="M12.572,56.631c0,1.524-1.127,2.762-2.515,2.762H3.196c-1.389,0-2.514-1.237-2.514-2.762
	c0,0,0.574-5.984,1.046-7.48c0.473-1.495,1.126-2.761,2.516-2.761h0.849h3.224h0.904c1.388,0,2.146,0.92,2.513,2.761
	C12.101,50.993,12.572,56.631,12.572,56.631z"/>
<path fill="#ABABA4" d="M6.682,59.4l-3.485-0.008c-1.389,0-2.514-1.237-2.514-2.762c0,0,0.574-5.984,1.046-7.48
	c0.473-1.495,1.126-2.761,2.516-2.761h0.849l1.545-0.015L6.682,59.4z"/>
<path fill="#BFC1A9" d="M12.572,56.631l-2.881,0.001L8.316,46.39h0.904c1.388,0,2.146,0.92,2.513,2.761
	C12.101,50.993,12.572,56.631,12.572,56.631z"/>
<path fill="#BFC1A9" d="M0.683,56.631c0,0,0.574-5.984,1.046-7.48c0.473-1.495,1.126-2.761,2.516-2.761l0.849-0.003L3.716,56.64
	L0.683,56.631z"/>
<g>
	<circle fill="#FFFFFF" cx="6.626" cy="40.86" r="4.819"/>
</g>
<g>
	<path fill="#CBCCC2" d="M1.807,40.86l3.286-2.957c0,0,0.7,1.16,2.566,2.005c1.8,0.813,3.786,0.952,3.786,0.952
		c0-2.661-2.156-4.817-4.818-4.817S1.807,38.199,1.807,40.86z"/>
</g>
<path fill="#BFC1A9" d="M23.275,55.911c0,1.922-1.418,3.479-3.167,3.479h-8.646c-1.75,0-3.167-1.558-3.167-3.479
	c0,0,0.724-7.539,1.318-9.425c0.595-1.883,1.42-3.479,3.168-3.479h1.069h4.063h1.139c1.749,0,2.706,1.16,3.168,3.479
	C22.681,48.806,23.275,55.911,23.275,55.911z"/>
<path fill="#9A9B8A" d="M15.855,59.4l-4.393-0.01c-1.75,0-3.167-1.558-3.167-3.479c0,0,0.724-7.539,1.318-9.425
	c0.595-1.883,1.42-3.479,3.168-3.479h1.069l1.949-0.018L15.855,59.4z"/>
<path fill="#232323" d="M23.275,55.911l-3.629,0.001l-1.732-12.905h1.139c1.749,0,2.706,1.16,3.168,3.479
	C22.681,48.806,23.275,55.911,23.275,55.911z"/>
<path fill="#232323" d="M8.296,55.911c0,0,0.724-7.539,1.318-9.425c0.595-1.883,1.42-3.479,3.168-3.479l1.069-0.003l-1.733,12.918
	L8.296,55.911z"/>
<g>
	<circle fill="#FFFFFF" cx="15.785" cy="36.042" r="6.071"/>
</g>
<g>
	<path fill="#232323" d="M21.856,36.042l-4.14-3.726c0,0-0.881,1.46-3.231,2.524c-2.268,1.024-4.771,1.201-4.771,1.201
		c0-3.352,2.717-6.07,6.071-6.07C19.139,29.972,21.856,32.69,21.856,36.042z"/>
</g>
<g>
	<path fill="#232323" d="M12.994,38.469c0,0,0.121-0.168,0.052-0.323c-0.198-0.428-0.854-0.107-0.81,0.479
		c0,0,0.045,1.217,1.777,1.274c0.45,0.014,1.063-0.083,1.552-0.624c0.341-0.374,0.247-1.062-0.187-1.223
		c-0.469-0.172-1.069-0.047-1.52,0.637c-0.427,0.648-1.266,0.198-1.254-0.235C12.618,38.052,13.084,38.208,12.994,38.469z"/>
	<path fill="#232323" d="M18.456,38.469c0,0-0.121-0.168-0.052-0.323c0.197-0.428,0.854-0.107,0.809,0.479
		c0,0-0.043,1.217-1.775,1.274c-0.451,0.014-1.064-0.083-1.554-0.624c-0.339-0.374-0.247-1.062,0.188-1.223
		c0.469-0.172,1.069-0.047,1.517,0.637c0.428,0.648,1.269,0.198,1.256-0.235C18.831,38.052,18.366,38.208,18.456,38.469z"/>
</g>
</svg>
