<?xml version="1.0" encoding="utf-8"?>
<!-- Generator: Adobe Illustrator 16.0.0, SVG Export Plug-In . SVG Version: 6.00 Build 0)  -->
<!DOCTYPE svg PUBLIC "-//W3C//DTD SVG 1.1//EN" "http://www.w3.org/Graphics/SVG/1.1/DTD/svg11.dtd">
<svg version="1.1" id="Шар_1" xmlns="http://www.w3.org/2000/svg" xmlns:xlink="http://www.w3.org/1999/xlink" x="0px" y="0px"
	 width="34.974px" height="59.479px" viewBox="0 0 34.974 59.479" enable-background="new 0 0 34.974 59.479" xml:space="preserve">
<g>
	<path fill-rule="evenodd" clip-rule="evenodd" fill="#ED6C57" d="M34.994,59.479c-11.7,0-23.331,0-34.97,0
		c0-19.79,0-39.581,0-59.394c11.655,0,23.319,0,34.97,0C34.994,19.871,34.994,39.673,34.994,59.479z"/>
</g>
<g>
	<defs>
		<path id="SVGID_1_" d="M-0.055,59.426c11.685,0,23.3,0,34.923,0c0-19.764,0-39.528,0-59.312c-11.641,0-23.288,0-34.923,0
			C-0.055,19.871-0.055,39.648-0.055,59.426z"/>
	</defs>
	<clipPath id="SVGID_2_">
		<use xlink:href="#SVGID_1_"  overflow="visible"/>
	</clipPath>
	<g clip-path="url(#SVGID_2_)">
		<polygon fill="#E86557" points="28.412,50.936 28.412,-0.241 23.611,-0.272 23.611,50.269 		"/>
		<polygon fill="#EF6D61" points="33.16,51.353 33.16,0.009 28.412,0.009 28.412,50.936 		"/>
		<polygon fill="#E86557" points="9.91,52.604 9.91,-0.272 5.079,-0.272 4.453,53.604 		"/>
		<polygon fill="#EF6D61" points="12.744,50.519 12.744,-0.272 10.964,-0.272 10.964,49.436 		"/>
	</g>
</g>
<polygon fill-rule="evenodd" clip-rule="evenodd" fill="#BFC1A9" points="28.165,42.69 28.616,43.605 29.627,43.75 28.897,44.463 
	29.07,45.468 28.165,44.994 27.265,45.468 27.436,44.463 26.706,43.75 27.715,43.605 "/>
<polygon fill-rule="evenodd" clip-rule="evenodd" fill="#232323" stroke="#232323" stroke-width="0.3549" stroke-miterlimit="10" points="
	28.873,41.098 29.336,42.038 30.375,42.188 29.623,42.921 29.8,43.954 28.873,43.466 27.944,43.954 28.121,42.921 27.372,42.188 
	28.407,42.038 "/>
<polygon fill-rule="evenodd" clip-rule="evenodd" fill="#CBCCC2" stroke="#CBCCC2" stroke-width="0.9009" stroke-miterlimit="10" points="
	27.333,38.751 27.797,39.69 28.835,39.841 28.083,40.573 28.26,41.606 27.333,41.119 26.405,41.606 26.582,40.573 25.832,39.841 
	26.869,39.69 "/>
<path fill-rule="evenodd" clip-rule="evenodd" fill="#BFC1A9" d="M2.889,47.832v-28.98c0-1.369,1.109-2.479,2.479-2.479h11.313
	c1.369,0,2.479,1.109,2.479,2.479v28.98H2.889z"/>
<polygon fill="#FFFFFF" points="13.886,49.29 13.886,59.478 26.995,59.478 26.995,48.813 "/>
<polygon fill="#FFFFFF" points="-0.109,49.29 -0.109,59.478 14.328,59.478 14.328,49.123 "/>
<polygon fill="#CBCCC2" points="23.161,49.623 23.161,59.478 19.484,59.478 19.484,49.457 "/>
<polygon fill="#CBCCC2" points="9.995,49.623 9.995,59.478 4.661,59.478 4.661,49.457 "/>
<polygon fill="#FFFFFF" points="26.84,49.457 26.84,59.478 35.016,59.478 34.995,48.79 "/>
<polygon fill="#CBCCC2" points="32.495,48.957 32.495,59.478 27.495,59.478 27.495,49.789 "/>
<path fill-rule="evenodd" clip-rule="evenodd" fill="#FFFFFF" d="M4.792,47.832v-28.98c0-1.369,1.109-2.479,2.479-2.479h11.313
	c1.369,0,2.479,1.109,2.479,2.479v28.98H4.792z"/>
<rect x="7.62" y="19.743" fill-rule="evenodd" clip-rule="evenodd" fill="#CBCCC2" width="3.408" height="4.417"/>
<rect x="14.749" y="19.743" fill-rule="evenodd" clip-rule="evenodd" fill="#CBCCC2" width="3.408" height="4.417"/>
<rect x="7.62" y="26.664" fill-rule="evenodd" clip-rule="evenodd" fill="#CBCCC2" width="3.408" height="4.418"/>
<rect x="14.749" y="26.664" fill-rule="evenodd" clip-rule="evenodd" fill="#CBCCC2" width="3.408" height="4.418"/>
<rect x="7.62" y="33.407" fill-rule="evenodd" clip-rule="evenodd" fill="#CBCCC2" width="3.408" height="4.418"/>
<rect x="14.749" y="33.407" fill-rule="evenodd" clip-rule="evenodd" fill="#CBCCC2" width="3.408" height="4.418"/>
<rect x="7.62" y="40.433" fill-rule="evenodd" clip-rule="evenodd" fill="#CBCCC2" width="3.408" height="4.416"/>
<rect x="14.749" y="40.433" fill-rule="evenodd" clip-rule="evenodd" fill="#CBCCC2" width="3.408" height="4.416"/>
<polyline opacity="0.3" fill-rule="evenodd" clip-rule="evenodd" fill="#6F7C85" points="7.62,24.16 7.62,19.743 11.028,19.743 "/>
<polyline opacity="0.3" fill-rule="evenodd" clip-rule="evenodd" fill="#6F7C85" points="14.749,24.16 14.749,19.743 18.157,19.743 
	"/>
<polyline opacity="0.3" fill-rule="evenodd" clip-rule="evenodd" fill="#6F7C85" points="7.62,31.082 7.62,26.664 11.028,26.664 "/>
<polyline opacity="0.3" fill-rule="evenodd" clip-rule="evenodd" fill="#6F7C85" points="14.749,31.082 14.749,26.664 
	18.157,26.664 "/>
<polyline opacity="0.3" fill-rule="evenodd" clip-rule="evenodd" fill="#6F7C85" points="7.62,37.825 7.62,33.407 11.028,33.407 "/>
<polyline opacity="0.3" fill-rule="evenodd" clip-rule="evenodd" fill="#6F7C85" points="14.749,37.825 14.749,33.407 
	18.157,33.407 "/>
<polyline opacity="0.3" fill-rule="evenodd" clip-rule="evenodd" fill="#6F7C85" points="7.62,44.849 7.62,40.433 11.028,40.433 "/>
<polyline opacity="0.3" fill-rule="evenodd" clip-rule="evenodd" fill="#6F7C85" points="14.749,44.849 14.749,40.433 
	18.157,40.433 "/>
<polygon fill-rule="evenodd" clip-rule="evenodd" fill="#FFFFFF" stroke="#FFFFFF" stroke-width="0.8841" stroke-miterlimit="10" points="
	28.529,35.926 29.11,37.106 30.414,37.295 29.472,38.215 29.693,39.514 28.529,38.9 27.363,39.514 27.584,38.215 26.645,37.295 
	27.944,37.106 "/>
<path fill-rule="evenodd" clip-rule="evenodd" fill="#BFC1A9" d="M26.598,33.88l0.061-4.572l-0.022-1.076
	c0.006-0.889,0.022-3.682,0.028-4.573c0-0.049,0-0.097,0-0.163c-0.055,0-0.103,0-0.151,0c-0.399-0.009-0.455,0.001-0.856-0.012
	c-0.538-0.003-0.568-0.313-0.568-0.479c0.001-0.203,0.082-0.3,0.132-0.356c1.018-1.167,2.974-3.172,2.974-3.172
	s0.328-0.077,0.328-0.054c0,0.659,1.885,2.228,2.671,3.146c0.14,0.165,0.09,0.417-0.117,0.494c-0.109,0.042-0.237,0.056-0.356,0.06
	c-0.337,0.004-0.463-0.002-0.799-0.004c-0.044,0-0.089,0.005-0.146,0.006c0,0.059,0,0.105,0,0.153
	c-0.007,0.894-0.038,6.606-0.038,6.606l0.426,3.652l-0.37,0.38l-2.772-0.032L26.598,33.88z"/>
<path fill-rule="evenodd" clip-rule="evenodd" fill="#FFFFFF" d="M27.011,33.477l0.048-4.172l-0.023-1.078
	c0.004-0.889,0.026-4.085,0.03-4.977c0-0.047,0-0.096,0-0.165c-0.055,0-0.103,0-0.15,0c-0.399-0.006-0.689,0.001-1.091-0.011
	c-0.201-0.006-0.336-0.113-0.352-0.277c-0.006-0.079,0.014-0.182,0.063-0.236c1.017-1.168,2.982-3.163,2.982-3.163
	s2.145,2.083,3.075,3.165c0.138,0.165,0.087,0.419-0.117,0.495c-0.114,0.042-0.239,0.055-0.361,0.059
	c-0.336,0.005-0.46,0-0.797-0.004c-0.045,0-0.088,0.004-0.146,0.006c0,0.059,0,0.104-0.001,0.152
	c-0.003,0.896-0.037,6.608-0.037,6.608l0.037,3.647L27.011,33.477z"/>
<line fill="none" stroke="#232323" stroke-width="3" stroke-miterlimit="10" x1="-0.109" y1="49.291" x2="34.995" y2="49.291"/>
</svg>
