<?xml version="1.0" encoding="utf-8"?>
<!-- Generator: Adobe Illustrator 16.0.0, SVG Export Plug-In . SVG Version: 6.00 Build 0)  -->
<!DOCTYPE svg PUBLIC "-//W3C//DTD SVG 1.1//EN" "http://www.w3.org/Graphics/SVG/1.1/DTD/svg11.dtd">
<svg version="1.1" id="Шар_1" xmlns="http://www.w3.org/2000/svg" xmlns:xlink="http://www.w3.org/1999/xlink" x="0px" y="0px"
	 width="31.75px" height="59.479px" viewBox="0 0 31.75 59.479" enable-background="new 0 0 31.75 59.479" xml:space="preserve">
<g>
	<defs>
		<path id="SVGID_1_" d="M31.873,59.396c-10.615,0-21.169,0-31.729,0c0-19.779,0-39.558,0-59.355c10.577,0,21.16,0,31.729,0
			C31.873,19.813,31.873,39.604,31.873,59.396z"/>
	</defs>
	<clipPath id="SVGID_2_">
		<use xlink:href="#SVGID_1_"  overflow="visible"/>
	</clipPath>
	<g clip-path="url(#SVGID_2_)">
		<g>
			<path fill-rule="evenodd" clip-rule="evenodd" fill="#ED6C57" d="M33.37,59.345c-11.685,0-23.3,0-34.923,0
				c0-19.764,0-39.528,0-59.312c11.641,0,23.288,0,34.923,0C33.37,19.79,33.37,39.567,33.37,59.345z"/>
		</g>
	</g>
	<g clip-path="url(#SVGID_2_)">
		<defs>
			<path id="SVGID_3_" d="M33.37,59.387c-11.685,0-23.3,0-34.923,0c0-19.764,0-39.528,0-59.312c11.641,0,23.288,0,34.923,0
				C33.37,19.832,33.37,39.609,33.37,59.387z"/>
		</defs>
		<clipPath id="SVGID_4_">
			<use xlink:href="#SVGID_3_"  overflow="visible"/>
		</clipPath>
		<g clip-path="url(#SVGID_4_)">
			<polygon fill="#E86557" points="7.34,42.345 7.34,-0.28 13.497,-0.312 13.497,38.063 			"/>
			<polygon fill="#EF6D61" points="4.829,51.313 4.829,-0.03 7.402,-0.03 7.402,43.72 			"/>
			<polygon fill="#E86557" points="22.311,47.438 22.311,-0.312 27.329,-0.312 27.955,41.688 			"/>
			<polygon fill="#EF6D61" points="18.916,42.73 18.916,-0.312 22.267,-0.312 22.267,45.918 			"/>
		</g>
	</g>
	<g clip-path="url(#SVGID_2_)">
		<defs>
			<rect id="SVGID_5_" x="-1.566" y="0.021" width="34.938" height="59.375"/>
		</defs>
		<clipPath id="SVGID_6_">
			<use xlink:href="#SVGID_5_"  overflow="visible"/>
		</clipPath>
		<g clip-path="url(#SVGID_6_)">
			<polygon fill="#FFFFFF" points="12.542,38.148 12.542,71.834 22.059,71.834 22.059,46.771 			"/>
			<polygon fill="#FFFFFF" points="-3.664,33.548 -3.664,71.834 7.621,71.834 7.621,43.898 			"/>
			<polygon fill="#CBCCC2" points="13.309,38.148 13.309,71.834 7.059,71.834 7.059,43.898 			"/>
			<polygon fill="#FFFFFF" points="27.542,42.148 27.542,71.834 37.059,71.834 37.059,50.771 			"/>
			<polygon fill="#CBCCC2" points="27.684,42.479 27.684,71.834 22.059,71.834 22.059,48.229 			"/>
			<polyline fill="none" stroke="#232323" stroke-width="3" stroke-miterlimit="10" points="34.825,49.015 27.843,42.371 
				22.194,46.663 13.442,38.294 7.206,43.033 -4.379,31.447 			"/>
		</g>
	</g>
	<path clip-path="url(#SVGID_2_)" fill-rule="evenodd" clip-rule="evenodd" fill="#BFC1A9" d="M7.478,16.003l3.999,3.931
		l1.007,1.062c0.854,0.854,3.535,3.536,4.391,4.391c0.046,0.048,0.094,0.094,0.158,0.16c-0.054,0.054-0.1,0.1-0.146,0.145
		c-0.381,0.389-0.444,0.434-0.819,0.828c-0.517,0.516-0.25,0.845-0.09,1.005c0.192,0.192,0.364,0.211,0.466,0.217
		c2.097,0.159,5.902,0.229,5.902,0.229s0.084-3.918-0.054-5.851c-0.021-0.292-0.313-0.487-0.584-0.367
		c-0.148,0.065-0.284,0.175-0.403,0.288c-0.329,0.315-0.445,0.442-0.769,0.764c-0.042,0.042-0.088,0.081-0.145,0.133
		c-0.057-0.056-0.102-0.102-0.148-0.148c-0.858-0.858-6.344-6.349-6.344-6.349l-3.794-3.949l-2.646,2.678L7.478,16.003z"/>
	<path clip-path="url(#SVGID_2_)" fill-rule="evenodd" clip-rule="evenodd" fill="#FFFFFF" d="M7.447,15.176l4.029,3.986
		l1.007,1.063c0.854,0.854,3.924,3.924,4.778,4.778c0.047,0.047,0.094,0.094,0.158,0.159c-0.054,0.055-0.1,0.1-0.146,0.145
		c-0.381,0.389-0.668,0.657-1.042,1.052c-0.191,0.199-0.22,0.432-0.075,0.604c0.068,0.081,0.185,0.162,0.286,0.168
		c2.097,0.159,5.902,0.209,5.902,0.209s0.084-4.06-0.054-5.993c-0.021-0.291-0.313-0.487-0.584-0.366
		c-0.148,0.065-0.284,0.175-0.403,0.288c-0.329,0.315-0.445,0.441-0.769,0.763c-0.042,0.042-0.088,0.081-0.145,0.134
		c-0.057-0.057-0.102-0.102-0.148-0.148c-0.858-0.858-6.344-6.349-6.344-6.349l-3.444-3.559L7.447,15.176z"/>
</g>
</svg>
