<?xml version="1.0" encoding="utf-8"?>
<!-- Generator: Adobe Illustrator 16.0.0, SVG Export Plug-In . SVG Version: 6.00 Build 0)  -->
<!DOCTYPE svg PUBLIC "-//W3C//DTD SVG 1.1//EN" "http://www.w3.org/Graphics/SVG/1.1/DTD/svg11.dtd">
<svg version="1.1" id="Шар_1" xmlns="http://www.w3.org/2000/svg" xmlns:xlink="http://www.w3.org/1999/xlink" x="0px" y="0px"
	 width="35px" height="59.479px" viewBox="0 0 35 59.479" enable-background="new 0 0 35 59.479" xml:space="preserve">
<image overflow="visible" width="128" height="217" xlink:href="93B8211E.jpg"  transform="matrix(0.2734 0 0 0.2734 0 0.0928)">
</image>
<rect x="-0.129" y="0.125" fill="none" width="35.125" height="59.125"/>
<g>
	<defs>
		<rect id="SVGID_1_" x="-0.004" y="0.063" width="35.063" height="59.688"/>
	</defs>
	<clipPath id="SVGID_2_">
		<use xlink:href="#SVGID_1_"  overflow="visible"/>
	</clipPath>
	<g clip-path="url(#SVGID_2_)">
		<polygon fill="#E86557" points="9.458,29.751 9.458,0 12.809,0 12.809,38.375 		"/>
		<polygon fill="#EF6D61" points="6.083,32.25 6.083,0 9.434,0 9.434,38.375 		"/>
		<polygon fill="#E86557" points="30.06,29.751 30.06,0 34.934,0 35.56,38.25 		"/>
		<polygon fill="#EF6D61" points="26.708,32.25 26.708,0 30.059,0 30.059,38.375 		"/>
		<polygon fill="#FFFFFF" points="9.559,29.751 9.559,59.584 -0.274,59.584 -0.274,38.918 		"/>
		<polygon fill="#FFFFFF" points="35.393,22.418 35.393,59.584 18.996,59.584 18.996,38.918 		"/>
		<polygon fill="#CBCCC2" points="9.559,29.751 9.559,59.584 18.996,59.584 18.996,38.918 		"/>
		<polyline fill="none" stroke="#232323" stroke-width="3" stroke-miterlimit="10" points="-2.19,40.834 9.458,29.751 18.879,36.91 
			36.382,19.406 		"/>
		<path fill-rule="evenodd" clip-rule="evenodd" fill="#BFC1A9" d="M23.736,19.776l-5.053,5.208l-9.25-7.734l-16,15.75v-6.272
			l16-15.552l9.192,7.627l2.621-2.616l1.034-1.091c0.877-0.877,4.03-4.03,4.908-4.908c0.048-0.049,0.097-0.097,0.163-0.164
			c-0.056-0.056-0.103-0.103-0.149-0.148c-0.392-0.399-0.687-0.675-1.071-1.08c-0.196-0.205-0.949-0.733-0.077-1.605
			c0.077-0.077,0.19-0.166,0.294-0.173c2.154-0.163,6.476-0.61,6.476-0.61s-0.326,5.39-0.468,7.375
			c-0.021,0.3-0.395,0.624-0.673,0.5c-0.152-0.067-0.219-0.142-0.341-0.258c-0.338-0.324-0.458-0.454-0.79-0.784
			c-0.043-0.043-0.09-0.083-0.148-0.137c-0.058,0.058-0.104,0.104-0.152,0.152C29.37,14.137,23.736,19.776,23.736,19.776z"/>
		<path fill-rule="evenodd" clip-rule="evenodd" fill="#FFFFFF" d="M23.736,18.776l-5.053,5.208l-9.25-7.734l-16,15.75v-6.272
			l16-15.552l9.192,7.627l2.621-2.616l1.034-1.091c0.877-0.877,4.03-4.03,4.908-4.908c0.048-0.049,0.097-0.097,0.163-0.164
			c-0.056-0.056-0.103-0.103-0.149-0.148c-0.392-0.399-0.687-0.675-1.071-1.08c-0.196-0.205-0.226-0.443-0.077-0.621
			c0.07-0.083,0.19-0.166,0.294-0.173c2.154-0.163,6.476-0.61,6.476-0.61s-0.326,4.566-0.468,6.552
			c-0.021,0.3-0.321,0.501-0.6,0.377c-0.152-0.067-0.292-0.18-0.414-0.296c-0.338-0.324-0.458-0.454-0.79-0.784
			c-0.043-0.043-0.09-0.083-0.148-0.137c-0.058,0.058-0.104,0.104-0.152,0.152C29.37,13.137,23.736,18.776,23.736,18.776z"/>
	</g>
</g>
</svg>
