<?xml version="1.0" encoding="utf-8"?>
<!-- Generator: Adobe Illustrator 16.0.0, SVG Export Plug-In . SVG Version: 6.00 Build 0)  -->
<!DOCTYPE svg PUBLIC "-//W3C//DTD SVG 1.1//EN" "http://www.w3.org/Graphics/SVG/1.1/DTD/svg11.dtd">
<svg version="1.1" id="Шар_1" xmlns="http://www.w3.org/2000/svg" xmlns:xlink="http://www.w3.org/1999/xlink" x="0px" y="0px"
	 width="34.974px" height="59.479px" viewBox="0 0 34.974 59.479" enable-background="new 0 0 34.974 59.479" xml:space="preserve">
<g>
	<g>
		<path fill-rule="evenodd" clip-rule="evenodd" fill="#ED6C57" d="M34.959,59.479c-11.7,0-23.332,0-34.971,0
			c0-19.808,0-39.616,0-59.442c11.657,0,23.322,0,34.971,0C34.959,19.839,34.959,39.658,34.959,59.479z"/>
	</g>
</g>
<g>
	<defs>
		<path id="SVGID_1_" d="M-1.095,59.352c11.685,0,23.3,0,34.923,0c0-19.764,0-39.528,0-59.312c-11.641,0-23.288,0-34.923,0
			C-1.095,19.797-1.095,39.574-1.095,59.352z"/>
	</defs>
	<clipPath id="SVGID_2_">
		<use xlink:href="#SVGID_1_"  overflow="visible"/>
	</clipPath>
	<g clip-path="url(#SVGID_2_)">
		<polygon fill="#E86557" points="25.455,50.861 25.455,-0.315 20.654,-0.347 20.654,50.194 		"/>
		<polygon fill="#EF6D61" points="30.529,51.278 30.529,-0.065 25.455,-0.065 25.455,50.861 		"/>
		<polygon fill="#E86557" points="14.631,52.529 14.631,-0.347 7.122,-0.347 6.496,53.529 		"/>
		<polygon fill="#EF6D61" points="16.288,50.444 16.288,-0.347 14.508,-0.347 14.508,49.361 		"/>
	</g>
</g>
<g>
	<path fill="#CBCCC2" d="M8.338,57.98c0,0.781-0.578,1.416-1.29,1.416H3.529c-0.713,0-1.29-0.635-1.29-1.416
		c0,0,0.295-3.07,0.537-3.838c0.242-0.767,0.577-1.416,1.29-1.416h0.435h1.653h0.465c0.712,0,1.101,0.473,1.289,1.416
		C8.097,55.089,8.338,57.98,8.338,57.98z"/>
	<path fill="#ABABA4" d="M5.316,59.4l-1.787-0.004c-0.713,0-1.29-0.635-1.29-1.416c0,0,0.295-3.07,0.537-3.838
		c0.242-0.767,0.577-1.416,1.29-1.416h0.435l0.793-0.008L5.316,59.4z"/>
	<path fill="#FFFFFF" d="M8.338,57.98c0,0.781-0.578,1.416-1.29,1.416L6.858,57.98H8.338z"/>
	<path fill="#BFC1A9" d="M8.338,57.98H6.86l-0.706-5.254h0.465c0.712,0,1.101,0.473,1.289,1.416
		C8.097,55.089,8.338,57.98,8.338,57.98z"/>
	<path fill="#FFFFFF" d="M3.529,59.396c-0.713,0-1.29-0.635-1.29-1.416l1.557,0.004L3.529,59.396z"/>
	<path fill="#BFC1A9" d="M2.239,57.98c0,0,0.295-3.07,0.537-3.838c0.242-0.767,0.577-1.416,1.29-1.416l0.435-0.001l-0.705,5.259
		L2.239,57.98z"/>
	<g>
		<circle fill="#FFFFFF" cx="5.288" cy="49.892" r="2.472"/>
	</g>
	<g>
		<path fill="#CBCCC2" d="M2.816,49.892l1.686-1.518c0,0,0.358,0.595,1.315,1.028c0.924,0.417,1.942,0.489,1.942,0.489
			c0-1.365-1.105-2.472-2.471-2.472C3.923,47.42,2.816,48.526,2.816,49.892z"/>
	</g>
</g>
<g>
	<path fill="#BFC1A9" d="M12.591,57.629c0,0.976-0.72,1.767-1.607,1.767h-4.39c-0.888,0-1.607-0.791-1.607-1.767
		c0,0,0.367-3.827,0.669-4.784c0.303-0.956,0.721-1.767,1.608-1.767h0.543h2.063h0.578c0.888,0,1.374,0.589,1.608,1.767
		C12.289,54.021,12.591,57.629,12.591,57.629z"/>
	<path fill="#9A9B8A" d="M8.824,59.4l-2.23-0.005c-0.888,0-1.607-0.791-1.607-1.767c0,0,0.367-3.827,0.669-4.784
		c0.303-0.956,0.721-1.767,1.608-1.767h0.543l0.989-0.009L8.824,59.4z"/>
	<path fill="#FFFFFF" d="M12.591,57.629c0,0.976-0.72,1.767-1.607,1.767l-0.236-1.766L12.591,57.629z"/>
	<path fill="#232323" d="M12.591,57.629l-1.842,0.001l-0.88-6.552h0.578c0.888,0,1.374,0.589,1.608,1.767
		C12.289,54.021,12.591,57.629,12.591,57.629z"/>
	<path fill="#FFFFFF" d="M6.594,59.396c-0.888,0-1.607-0.791-1.607-1.767l1.94,0.006L6.594,59.396z"/>
	<path fill="#232323" d="M4.986,57.629c0,0,0.367-3.827,0.669-4.784c0.303-0.956,0.721-1.767,1.608-1.767l0.543-0.002l-0.88,6.559
		L4.986,57.629z"/>
	<g>
		<circle fill="#FFFFFF" cx="8.788" cy="47.542" r="3.082"/>
	</g>
	<g>
		<path fill="#232323" d="M5.706,47.542l2.102-1.891c0,0,0.447,0.741,1.64,1.281c1.151,0.52,2.423,0.609,2.423,0.609
			c0-1.701-1.379-3.081-3.082-3.081S5.706,45.841,5.706,47.542z"/>
	</g>
</g>
<g>
	<path fill="#CBCCC2" d="M17.806,57.18c0,1.222-0.902,2.215-2.015,2.215h-5.504c-1.114,0-2.017-0.993-2.017-2.215
		c0,0,0.46-4.8,0.838-5.999c0.38-1.2,0.905-2.215,2.019-2.215h0.68h2.587h0.725c1.113,0,1.721,0.737,2.015,2.215
		C17.428,52.658,17.806,57.18,17.806,57.18z"/>
	<path fill="#ABABA4" d="M13.083,59.4l-2.796-0.006c-1.114,0-2.017-0.993-2.017-2.215c0,0,0.46-4.8,0.838-5.999
		c0.38-1.2,0.905-2.215,2.019-2.215h0.68l1.239-0.012L13.083,59.4z"/>
	<path fill="#FFFFFF" d="M17.806,57.18c0,1.222-0.902,2.215-2.015,2.215l-0.297-2.214L17.806,57.18z"/>
	<path fill="#BFC1A9" d="M17.806,57.18l-2.31,0.001l-1.103-8.215h0.725c1.113,0,1.721,0.737,2.015,2.215
		C17.428,52.658,17.806,57.18,17.806,57.18z"/>
	<path fill="#FFFFFF" d="M10.287,59.395c-1.114,0-2.017-0.993-2.017-2.215l2.433,0.007L10.287,59.395z"/>
	<path fill="#BFC1A9" d="M8.271,57.18c0,0,0.46-4.8,0.838-5.999c0.38-1.2,0.905-2.215,2.019-2.215l0.68-0.003l-1.104,8.224
		L8.271,57.18z"/>
	<g>
		<circle fill="#FFFFFF" cx="13.038" cy="44.531" r="3.865"/>
	</g>
	<g>
		<path fill="#BFC1A9" d="M9.173,44.531l2.635-2.372c0,0,0.563,0.931,2.059,1.608c1.443,0.651,3.037,0.764,3.037,0.764
			c0-2.134-1.73-3.863-3.865-3.863S9.173,42.397,9.173,44.531z"/>
	</g>
</g>
<g>
	<path fill="#CBCCC2" d="M24.441,56.602c0,1.54-1.139,2.791-2.542,2.791h-6.935c-1.403,0-2.54-1.251-2.54-2.791
		c0,0,0.58-6.049,1.057-7.561c0.478-1.512,1.138-2.791,2.543-2.791h0.857h3.258h0.914c1.403,0,2.169,0.93,2.54,2.791
		C23.966,50.903,24.441,56.602,24.441,56.602z"/>
	<path fill="#ABABA4" d="M18.487,59.4l-3.522-0.008c-1.403,0-2.54-1.251-2.54-2.791c0,0,0.58-6.049,1.057-7.561
		c0.478-1.512,1.138-2.791,2.543-2.791h0.857l1.562-0.015L18.487,59.4z"/>
	<path fill="#FFFFFF" d="M24.441,56.602c0,1.54-1.139,2.791-2.542,2.791l-0.373-2.79L24.441,56.602z"/>
	<path fill="#BFC1A9" d="M24.441,56.602l-2.912,0.001L20.14,46.25h0.914c1.403,0,2.169,0.93,2.54,2.791
		C23.966,50.903,24.441,56.602,24.441,56.602z"/>
	<path fill="#FFFFFF" d="M14.965,59.393c-1.403,0-2.54-1.251-2.54-2.791l3.065,0.009L14.965,59.393z"/>
	<path fill="#BFC1A9" d="M12.425,56.602c0,0,0.58-6.049,1.057-7.561c0.478-1.512,1.138-2.791,2.543-2.791l0.857-0.003L15.49,56.61
		L12.425,56.602z"/>
	<g>
		<circle fill="#FFFFFF" cx="18.432" cy="40.662" r="4.871"/>
	</g>
	<g>
		<path fill="#CBCCC2" d="M13.561,40.662l3.321-2.989c0,0,0.708,1.173,2.593,2.026c1.82,0.821,3.828,0.963,3.828,0.963
			c0-2.689-2.18-4.869-4.87-4.869S13.561,37.973,13.561,40.662z"/>
	</g>
</g>
<g>
	<path fill="#BFC1A9" d="M32.52,55.911c0,1.922-1.418,3.479-3.167,3.479h-8.646c-1.75,0-3.167-1.558-3.167-3.479
		c0,0,0.724-7.539,1.318-9.425c0.595-1.883,1.42-3.479,3.168-3.479h1.069h4.063h1.139c1.749,0,2.706,1.16,3.168,3.479
		C31.925,48.806,32.52,55.911,32.52,55.911z"/>
	<path fill="#9A9B8A" d="M25.1,59.4l-4.393-0.01c-1.75,0-3.167-1.558-3.167-3.479c0,0,0.724-7.539,1.318-9.425
		c0.595-1.883,1.42-3.479,3.168-3.479h1.069l1.949-0.018L25.1,59.4z"/>
	<path fill="#FFFFFF" d="M32.52,55.911c0,1.922-1.418,3.479-3.167,3.479l-0.466-3.479L32.52,55.911z"/>
	<path fill="#232323" d="M32.52,55.911l-3.629,0.001l-1.732-12.905h1.139c1.749,0,2.706,1.16,3.168,3.479
		C31.925,48.806,32.52,55.911,32.52,55.911z"/>
	<path fill="#FFFFFF" d="M20.707,59.391c-1.75,0-3.167-1.558-3.167-3.479l3.822,0.011L20.707,59.391z"/>
	<path fill="#232323" d="M17.54,55.911c0,0,0.724-7.539,1.318-9.425c0.595-1.883,1.42-3.479,3.168-3.479l1.069-0.003l-1.733,12.918
		L17.54,55.911z"/>
	<g>
		<circle fill="#FFFFFF" cx="25.029" cy="36.042" r="6.071"/>
	</g>
	<g>
		<path fill="#232323" d="M18.958,36.042l4.14-3.726c0,0,0.881,1.46,3.231,2.524c2.268,1.024,4.771,1.201,4.771,1.201
			c0-3.352-2.717-6.07-6.071-6.07C21.676,29.972,18.958,32.69,18.958,36.042z"/>
	</g>
</g>
</svg>
