<?xml version="1.0" encoding="utf-8"?>
<!-- Generator: Adobe Illustrator 16.0.0, SVG Export Plug-In . SVG Version: 6.00 Build 0)  -->
<!DOCTYPE svg PUBLIC "-//W3C//DTD SVG 1.1//EN" "http://www.w3.org/Graphics/SVG/1.1/DTD/svg11.dtd">
<svg version="1.1" id="Шар_1" xmlns="http://www.w3.org/2000/svg" xmlns:xlink="http://www.w3.org/1999/xlink" x="0px" y="0px"
	 width="34.929px" height="34.928px" viewBox="0 0 34.929 34.928" enable-background="new 0 0 34.929 34.928" xml:space="preserve">
<g>
	<g>
		<g>
			<g>
				<circle fill="#232323" cx="17.464" cy="17.464" r="17.464"/>
			</g>
		</g>
	</g>
</g>
<g>
	<defs>
		<circle id="SVGID_1_" cx="17.464" cy="17.464" r="17.464"/>
	</defs>
	<clipPath id="SVGID_2_">
		<use xlink:href="#SVGID_1_"  overflow="visible"/>
	</clipPath>
	<g clip-path="url(#SVGID_2_)">
		<path fill="#FFFFFF" d="M27.857,47.272c0,0.553-0.448,1-1,1h-29.39c-0.553,0-1-0.447-1-1V9.106c0-0.553,0.447-1,1-1h29.39
			c0.552,0,1,0.447,1,1V47.272z"/>
		<path fill="none" stroke="#EC6B57" stroke-width="0.2477" stroke-miterlimit="10" d="M26.191,44.572
			c0,0.489-0.397,0.886-0.886,0.886H-0.903c-0.49,0-0.886-0.396-0.886-0.886V10.741c0-0.489,0.396-0.886,0.886-0.886h26.209
			c0.488,0,0.886,0.396,0.886,0.886V44.572z"/>
		<g>
			<g>
				<g>
					<g>
						<g>
							<g>
								<path fill="#BFC1A9" d="M20.94,23.02H4.565c-0.177,0-0.32,0.145-0.32,0.32c0,0.178,0.144,0.32,0.32,0.32H20.94
									c0.176,0,0.32-0.143,0.32-0.32C21.261,23.164,21.116,23.02,20.94,23.02z"/>
							</g>
						</g>
					</g>
				</g>
			</g>
			<g>
				<g>
					<g>
						<g>
							<g>
								<path fill="#B0AFA4" d="M17.103,18.065H8.271c-0.227,0-0.41,0.184-0.41,0.41s0.184,0.409,0.41,0.409h8.831
									c0.226,0,0.409-0.183,0.409-0.409S17.328,18.065,17.103,18.065z"/>
							</g>
						</g>
					</g>
				</g>
			</g>
			<g>
				<g>
					<g>
						<g>
							<g>
								<path fill="#BFC1A9" d="M20.94,24.849H4.565c-0.177,0-0.32,0.144-0.32,0.319c0,0.178,0.144,0.32,0.32,0.32H20.94
									c0.176,0,0.32-0.143,0.32-0.32C21.261,24.992,21.116,24.849,20.94,24.849z"/>
							</g>
						</g>
					</g>
				</g>
			</g>
			<g>
				<g>
					<g>
						<g>
							<g>
								<path fill="#B0AFA4" d="M20.94,30.724h-5.667c-0.177,0-0.32,0.144-0.32,0.319c0,0.178,0.144,0.32,0.32,0.32h5.667
									c0.176,0,0.32-0.143,0.32-0.32C21.261,30.867,21.116,30.724,20.94,30.724z"/>
							</g>
						</g>
					</g>
				</g>
			</g>
			<g>
				<g>
					<g>
						<g>
							<g>
								<path fill="#B0AFA4" d="M20.94,32.141h-5.667c-0.177,0-0.32,0.144-0.32,0.319c0,0.178,0.144,0.32,0.32,0.32h5.667
									c0.176,0,0.32-0.143,0.32-0.32C21.261,32.284,21.116,32.141,20.94,32.141z"/>
							</g>
						</g>
					</g>
				</g>
			</g>
			<g>
				<g>
					<g>
						<g>
							<g>
								<path fill="#BFC1A9" d="M20.94,21.349H4.565c-0.177,0-0.32,0.144-0.32,0.319c0,0.178,0.144,0.32,0.32,0.32H20.94
									c0.176,0,0.32-0.143,0.32-0.32C21.261,21.492,21.116,21.349,20.94,21.349z"/>
							</g>
						</g>
					</g>
				</g>
			</g>
		</g>
		<g>
			<g>
				<g>
					<g>
						<g>
							<g>
								<g>
									<g>
										<path fill="#E86557" d="M4.604,16.006l1.144-0.791L4.68,14.474c0,0,1.691-0.067,3.688,0.023l0.021,1.534
											C6.394,15.94,4.604,16.006,4.604,16.006z"/>
									</g>
								</g>
							</g>
						</g>
					</g>
				</g>
				<g>
					<g>
						<g>
							<g>
								<g>
									<polygon fill="#DD5C52" points="7.082,15.26 8.367,14.497 8.388,16.031 									"/>
								</g>
							</g>
						</g>
					</g>
				</g>
			</g>
			<g>
				<g>
					<g>
						<g>
							<g>
								<g>
									<g>
										<path fill="#E86557" d="M20.95,16.006l-1.144-0.791l1.068-0.741c0,0-1.691-0.067-3.688,0.023l-0.021,1.534
											C19.161,15.94,20.95,16.006,20.95,16.006z"/>
									</g>
								</g>
							</g>
						</g>
					</g>
				</g>
				<g>
					<g>
						<g>
							<g>
								<g>
									<polygon fill="#DD5C52" points="18.473,15.26 17.188,14.497 17.167,16.031 									"/>
								</g>
							</g>
						</g>
					</g>
				</g>
			</g>
			<rect x="7.055" y="13.576" fill="#EC6B57" width="11.406" height="1.719"/>
		</g>
	</g>
</g>
<g>
	<g>
		<g>
			<path fill="#B0AFA4" d="M15.416,6.423l-1.035-3.496c0.005-0.061,0.064-0.119,0.119-0.119l3.495,1.037
				c0.034,0,0.159,0.111,0.177,0.139c0.027,0.018,0.983,2.184,0.983,2.184c0,0.055-1.351,1.404-1.404,1.404
				c0,0-2.178-0.945-2.195-0.971C15.529,6.583,15.416,6.456,15.416,6.423z"/>
		</g>
		<g>
			<path fill="#BFC1A9" d="M14.42,2.847c0.018-0.018,0.049-0.037,0.08-0.039l3.495,1.037c0.034,0,0.159,0.111,0.177,0.139
				c0.027,0.018,0.983,2.184,0.983,2.184c0,0.025-0.351,0.391-0.686,0.727L14.42,2.847z"/>
		</g>
		<g>
			<g>
				<polygon fill="#AE8B51" points="18.592,7.015 19.271,6.335 18.592,7.015 				"/>
			</g>
			<g>
				<path fill="#E86557" d="M17.914,7.692l0.678-0.678l3.477,3.477c-0.209,0.295-0.428,0.584-0.654,0.865l-3.5-3.498
					C17.868,7.812,17.868,7.737,17.914,7.692z"/>
				<path fill="#EC6B57" d="M18.592,7.015l0.68-0.68c0.045-0.045,0.119-0.045,0.164,0l3.239,3.238
					c-0.192,0.313-0.396,0.619-0.606,0.918L18.592,7.015z"/>
			</g>
			<g>
				<path fill="#E86557" d="M21.195,10.974l0.678-0.678l12.338,12.14c-0.125,0.531-0.526,1.652-0.792,2.152L21.195,11.14
					C21.149,11.093,21.149,11.019,21.195,10.974z"/>
				<path fill="#EC6B57" d="M21.873,10.296l0.68-0.68c0.045-0.045,0.119-0.045,0.164,0l11.932,10.909
					c-0.078,0.453-0.25,1.457-0.5,2.082L21.873,10.296z"/>
			</g>
		</g>
		<g>
			<path fill="#DD5C52" d="M17.199,5.853c0.018,0.018,0.121-0.055,0.145-0.08l0,0c0.024-0.023,0.098-0.125,0.08-0.145L14.459,2.8
				c-0.019-0.018-0.053-0.014-0.077,0.012l0,0c-0.024,0.023-0.029,0.059-0.011,0.076L17.199,5.853z"/>
		</g>
		<g>
			
				<ellipse transform="matrix(-0.7087 0.7055 -0.7055 -0.7087 33.7212 -2.3595)" fill="#DD5C52" cx="17.348" cy="5.781" rx="0.298" ry="0.363"/>
		</g>
		<g>
			
				<ellipse transform="matrix(-0.7092 0.705 -0.705 -0.7092 33.726 -2.3497)" fill="#E86557" cx="17.348" cy="5.781" rx="0.237" ry="0.289"/>
		</g>
		<g>
			<path fill="#E86557" d="M14.363,2.843c0,0,0.004-0.018,0.019-0.031c0.013-0.014,0.031-0.02,0.031-0.02l2.952,2.887
				c0.019,0.02-0.011,0.078-0.024,0.092c-0.015,0.014-0.073,0.043-0.091,0.023L14.363,2.843z"/>
		</g>
		<g>
			<path fill="#EC6B57" d="M14.382,2.812c0.013-0.014,0.031-0.02,0.031-0.02l2.802,2.74c0.092-0.035,0.213-0.006,0.301,0.082
				c0.112,0.111,0.129,0.279,0.036,0.371L14.382,2.812z"/>
		</g>
		<g>
			<path fill="#DB5B52" d="M17.745,7.833c0.05,0.049,0.131,0.049,0.181,0l1.484-1.486c0.051-0.049,0.051-0.131,0-0.18l-0.1-0.1
				c-0.05-0.051-0.131-0.051-0.181,0l-1.485,1.484c-0.049,0.049-0.049,0.131,0,0.18L17.745,7.833z"/>
		</g>
		<g>
			<path fill="#F3736D" d="M18.668,7.091l0.742-0.744c0.051-0.049,0.051-0.131,0-0.18l-0.1-0.1c-0.05-0.051-0.131-0.051-0.181,0
				L18.387,6.81L18.668,7.091z"/>
		</g>
	</g>
</g>
</svg>
