<?xml version="1.0" encoding="utf-8"?>
<!-- Generator: Adobe Illustrator 16.0.0, SVG Export Plug-In . SVG Version: 6.00 Build 0)  -->
<!DOCTYPE svg PUBLIC "-//W3C//DTD SVG 1.1//EN" "http://www.w3.org/Graphics/SVG/1.1/DTD/svg11.dtd">
<svg version="1.1" id="Шар_1" xmlns="http://www.w3.org/2000/svg" xmlns:xlink="http://www.w3.org/1999/xlink" x="0px" y="0px"
	 width="34.929px" height="34.928px" viewBox="0 0 34.929 34.928" enable-background="new 0 0 34.929 34.928" xml:space="preserve">
<g>
	<g>
		<g>
			<g>
				<circle fill="#EC6B57" cx="17.464" cy="17.464" r="17.464"/>
			</g>
		</g>
	</g>
</g>
<path fill="#232323" d="M25.022,30.141c0,0.533-0.432,0.965-0.965,0.965H10.425c-0.535,0-0.965-0.432-0.965-0.965V4.596
	c0-0.533,0.43-0.965,0.965-0.965h13.633c0.533,0,0.965,0.432,0.965,0.965V30.141z"/>
<rect x="11.064" y="6.758" fill="#FFFFFF" width="12.433" height="20.335"/>
<path fill="#CBCCC2" d="M19.627,5.337c0,0.098-0.081,0.18-0.182,0.18h-3.903c-0.1,0-0.18-0.082-0.18-0.18l0,0
	c0-0.101,0.08-0.181,0.18-0.181h3.903C19.546,5.156,19.627,5.236,19.627,5.337L19.627,5.337z"/>
<circle fill="#CBCCC2" cx="14.934" cy="5.337" r="0.18"/>
<circle fill="#CBCCC2" cx="17.44" cy="29.059" r="1.204"/>
<circle opacity="0.3" fill="#6F7C85" cx="17.441" cy="29.059" r="0.933"/>
<circle opacity="0.3" fill="#6F7C85" cx="17.24" cy="12.431" r="3.095"/>
<g>
	<g>
		<g>
			<g>
				<g>
					<path fill="#B0AFA4" d="M20.105,22.542h-5.688c-0.179,0-0.322,0.146-0.322,0.32c0,0.179,0.144,0.322,0.322,0.322h5.688
						c0.177,0,0.321-0.144,0.321-0.322C20.427,22.688,20.282,22.542,20.105,22.542z"/>
				</g>
			</g>
		</g>
	</g>
</g>
<g>
	<g>
		<g>
			<g>
				<g>
					<path fill="#B0AFA4" d="M20.105,23.965h-5.688c-0.179,0-0.322,0.144-0.322,0.321s0.144,0.321,0.322,0.321h5.688
						c0.177,0,0.321-0.144,0.321-0.321S20.282,23.965,20.105,23.965z"/>
				</g>
			</g>
		</g>
	</g>
</g>
<g>
	<g>
		<path fill="#EC6B57" d="M13.421,19.435c0.018,0.046-0.002,0.099-0.049,0.115l-0.593,0.241c-0.044,0.018-0.098-0.005-0.114-0.05
			l-0.634-1.565c-0.02-0.045,0.006-0.098,0.048-0.116l0.592-0.239c0.046-0.019,0.1,0.005,0.117,0.051L13.421,19.435z"/>
		
			<ellipse transform="matrix(0.7452 -0.6669 0.6669 0.7452 -9.2049 14.8562)" fill="#B0AFA4" cx="14.837" cy="19.473" rx="0.411" ry="0.541"/>
		<path fill="#B0AFA4" d="M19.257,16.91c0.02,0.046-0.004,0.099-0.05,0.117l-0.249,0.101c-0.045,0.02-0.097-0.004-0.116-0.05
			l-0.49-1.218c-0.021-0.044,0.001-0.096,0.046-0.113l0.25-0.101c0.046-0.021,0.1,0.003,0.118,0.046L19.257,16.91z"/>
		<path fill="#232323" d="M19.716,19.042c0.018,0.045-0.003,0.098-0.049,0.113l-0.346,0.142c-0.046,0.019-0.098-0.002-0.116-0.05
			l-2.097-5.183c-0.02-0.048,0.004-0.099,0.048-0.119l0.346-0.138c0.047-0.02,0.099,0.004,0.117,0.051L19.716,19.042z"/>
		<path fill="#232323" d="M14.154,19.623l-0.879,0.354c-0.047,0.019-0.101-0.004-0.118-0.051l-0.9-2.225
			c-0.018-0.047,0.005-0.101,0.05-0.118l0.876-0.357L14.154,19.623z"/>
		<path fill="#232323" d="M15.398,20.711c0.018,0.046-0.004,0.099-0.05,0.117l-0.842,0.353c-0.043,0.019-0.096-0.005-0.113-0.049
			l-0.634-1.566c-0.02-0.045,0.005-0.097,0.049-0.117l0.841-0.351c0.047-0.02,0.098,0.005,0.115,0.05L15.398,20.711z"/>
		<path fill="#EC6B57" d="M14.148,19.611l2.163-0.873c0,0,0.885-0.347,1.518-0.242c0.636,0.105,1.223,0.364,1.223,0.364
			l-1.819-4.501c0,0-0.245,0.594-0.626,1.108c-0.383,0.519-1.26,0.885-1.26,0.885l-2.164,0.873L14.148,19.611z"/>
	</g>
	<g>
		<g>
			<g>
				<path fill="#EC6B57" d="M18.66,13.282c3.365-1.175,5.29,3.581,2.063,5.087c-0.16,0.075-0.021,0.312,0.139,0.237
					c3.508-1.638,1.382-6.866-2.275-5.589C18.42,13.075,18.492,13.34,18.66,13.282L18.66,13.282z"/>
			</g>
		</g>
		<g>
			<g>
				<path fill="#EC6B57" d="M19.031,14.077c2.269-0.791,3.567,2.411,1.384,3.423c-0.161,0.075-0.021,0.311,0.139,0.237
					c2.465-1.143,0.966-4.818-1.596-3.925C18.792,13.87,18.863,14.135,19.031,14.077L19.031,14.077z"/>
			</g>
		</g>
		<g>
			<g>
				<path fill="#EC6B57" d="M19.371,14.773c1.288-0.439,2,1.344,0.775,1.927c-0.16,0.076-0.021,0.313,0.139,0.237
					c1.507-0.717,0.594-2.968-0.987-2.429C19.131,14.565,19.202,14.83,19.371,14.773L19.371,14.773z"/>
			</g>
		</g>
	</g>
</g>
<polygon opacity="0.3" fill="#6F7C85" points="14.19,6.778 23.496,6.778 23.496,27.133 22.333,27.133 "/>
</svg>
