<?xml version="1.0" encoding="utf-8"?>
<!-- Generator: Adobe Illustrator 16.0.0, SVG Export Plug-In . SVG Version: 6.00 Build 0)  -->
<!DOCTYPE svg PUBLIC "-//W3C//DTD SVG 1.1//EN" "http://www.w3.org/Graphics/SVG/1.1/DTD/svg11.dtd">
<svg version="1.1" id="Шар_1" xmlns="http://www.w3.org/2000/svg" xmlns:xlink="http://www.w3.org/1999/xlink" x="0px" y="0px"
	 width="34.929px" height="34.928px" viewBox="0 0 34.929 34.928" enable-background="new 0 0 34.929 34.928" xml:space="preserve">
<g>
	<g>
		<g>
			<g>
				<circle fill="#EC6B57" cx="17.464" cy="17.464" r="17.464"/>
			</g>
		</g>
	</g>
</g>
<path fill="#232323" d="M15.074,26.134v1.927c0,0,0.027,0.625-0.369,0.965s-0.822,0.313-0.822,0.313v0.538h7.286v-0.482
	c0,0-0.511-0.056-0.821-0.34c-0.345-0.313-0.369-0.767-0.369-0.767v-2.124L15.074,26.134z"/>
<path fill="#232323" d="M30.213,25.737c0,0.25-0.203,0.453-0.453,0.453H5.039c-0.251,0-0.455-0.203-0.455-0.453V8.272
	c0-0.25,0.204-0.453,0.455-0.453H29.76c0.25,0,0.453,0.203,0.453,0.453V25.737z"/>
<rect x="5.908" y="9.105" fill="#CBCCC2" width="23.284" height="12.246"/>
<g>
	<g>
		<g>
			<g>
				<g>
					<path fill="#BFC1A9" d="M16.592,23.229h-6.301c-0.111,0-0.204,0.092-0.204,0.203c0,0.112,0.093,0.201,0.204,0.201h6.301
						c0.112,0,0.203-0.089,0.203-0.201C16.795,23.32,16.704,23.229,16.592,23.229z"/>
				</g>
			</g>
		</g>
	</g>
</g>
<rect x="5.908" y="9.105" fill="none" width="23.284" height="12.246"/>
<path fill="#BFC1A9" d="M30.213,22.561v3.177c0,0.25-0.203,0.453-0.453,0.453H5.039c-0.251,0-0.455-0.203-0.455-0.453v-3.232
	L30.213,22.561z"/>
<circle fill="#232323" cx="17.53" cy="24.395" r="0.624"/>
<g>
	<defs>
		<rect id="SVGID_1_" x="5.908" y="9.105" width="23.284" height="12.246"/>
	</defs>
	<clipPath id="SVGID_2_">
		<use xlink:href="#SVGID_1_"  overflow="visible"/>
	</clipPath>
	<g clip-path="url(#SVGID_2_)">
		<path fill="#FFFFFF" d="M27.491,33.984c0,0.351-0.286,0.636-0.634,0.636H8.222c-0.351,0-0.634-0.285-0.634-0.636V9.786
			c0-0.351,0.283-0.635,0.634-0.635h18.636c0.348,0,0.634,0.284,0.634,0.635V33.984z"/>
		<rect x="10.173" y="12.811" fill="#B0AFA4" width="14.952" height="5.072"/>
		<g>
			<g>
				<g>
					<g>
						<g>
							<path fill="#B0AFA4" d="M24.951,11.557H10.41c-0.144,0-0.26,0.117-0.26,0.259c0,0.145,0.116,0.261,0.26,0.261h14.541
								c0.143,0,0.26-0.116,0.26-0.261C25.211,11.674,25.094,11.557,24.951,11.557z"/>
						</g>
					</g>
				</g>
			</g>
		</g>
		<g>
			<g>
				<g>
					<g>
						<g>
							<path fill="#BFC1A9" d="M24.902,19.771H10.291c-0.111,0-0.204,0.09-0.204,0.203c0,0.112,0.093,0.204,0.204,0.204h14.611
								c0.11,0,0.201-0.092,0.201-0.204C25.104,19.86,25.013,19.771,24.902,19.771z"/>
						</g>
					</g>
				</g>
			</g>
		</g>
		<g>
			<g>
				<g>
					<g>
						<g>
							<path fill="#BFC1A9" d="M24.902,22.07H10.291c-0.111,0-0.204,0.09-0.204,0.202s0.093,0.202,0.204,0.202h14.611
								c0.11,0,0.201-0.09,0.201-0.202S25.013,22.07,24.902,22.07z"/>
						</g>
					</g>
				</g>
			</g>
		</g>
		<g>
			<g>
				<g>
					<g>
						<g>
							<path fill="#BFC1A9" d="M23.984,18.71H11.322c-0.113,0-0.204,0.092-0.204,0.203c0,0.113,0.091,0.204,0.204,0.204h12.662
								c0.111,0,0.203-0.091,0.203-0.204C24.188,18.802,24.096,18.71,23.984,18.71z"/>
						</g>
					</g>
				</g>
			</g>
		</g>
		
			<line fill="none" stroke="#EC6B57" stroke-width="0.1571" stroke-miterlimit="10" x1="7.577" y1="10.433" x2="27.478" y2="10.433"/>
		<g>
			<line fill="none" stroke="#FFFFFF" stroke-width="0.12" stroke-miterlimit="10" x1="10.1" y1="12.799" x2="25.237" y2="17.91"/>
			
				<line fill="none" stroke="#FFFFFF" stroke-width="0.12" stroke-miterlimit="10" x1="10.119" y1="17.883" x2="25.22" y2="12.799"/>
		</g>
		<circle fill="#EC6B57" cx="8.415" cy="9.786" r="0.238"/>
		<circle fill="#EC6B57" cx="9.207" cy="9.786" r="0.236"/>
		<circle fill="#EC6B57" cx="10" cy="9.786" r="0.238"/>
	</g>
</g>
<polygon opacity="0.3" fill="#6F7C85" points="14.223,9.105 29.192,9.105 29.192,21.352 26.772,21.352 "/>
</svg>
