<?xml version="1.0" encoding="utf-8"?>
<!-- Generator: Adobe Illustrator 16.0.0, SVG Export Plug-In . SVG Version: 6.00 Build 0)  -->
<!DOCTYPE svg PUBLIC "-//W3C//DTD SVG 1.1//EN" "http://www.w3.org/Graphics/SVG/1.1/DTD/svg11.dtd">
<svg version="1.1" id="Шар_1" xmlns="http://www.w3.org/2000/svg" xmlns:xlink="http://www.w3.org/1999/xlink" x="0px" y="0px"
	 width="34.929px" height="34.928px" viewBox="0 0 34.929 34.928" enable-background="new 0 0 34.929 34.928" xml:space="preserve">
<g>
	<g>
		<g>
			<g>
				<circle fill="#232323" cx="17.541" cy="17.357" r="17.464"/>
			</g>
		</g>
	</g>
</g>
<g>
	<defs>
		<circle id="SVGID_1_" cx="17.541" cy="17.357" r="17.464"/>
	</defs>
	<clipPath id="SVGID_2_">
		<use xlink:href="#SVGID_1_"  overflow="visible"/>
	</clipPath>
	<path clip-path="url(#SVGID_2_)" fill="#FFFFFF" d="M27.934,47.166c0,0.553-0.448,1-1,1h-29.39c-0.553,0-1-0.447-1-1V9
		c0-0.553,0.447-1,1-1h29.39c0.552,0,1,0.447,1,1V47.166z"/>
</g>
<path fill="none" stroke="#232323" stroke-width="0.25" stroke-miterlimit="10" d="M19.705,29.875c0,0.379-0.308,0.687-0.687,0.687
	H9.322c-0.381,0-0.687-0.308-0.687-0.687V11.706c0-0.379,0.306-0.687,0.687-0.687h9.696c0.379,0,0.687,0.308,0.687,0.687V29.875z"/>
<rect x="9.776" y="13.244" fill="none" stroke="#232323" stroke-width="0.25" stroke-miterlimit="10" width="8.843" height="14.463"/>
<path fill="#CBCCC2" d="M15.867,12.233c0,0.069-0.058,0.128-0.13,0.128h-2.775c-0.071,0-0.128-0.059-0.128-0.128l0,0
	c0-0.072,0.057-0.129,0.128-0.129h2.775C15.809,12.104,15.867,12.161,15.867,12.233L15.867,12.233z"/>
<circle fill="#CBCCC2" cx="12.529" cy="12.233" r="0.128"/>
<circle fill="none" stroke="#CBCCC2" stroke-width="0.25" stroke-miterlimit="10" cx="14.312" cy="29.105" r="0.856"/>
<circle fill="none" stroke="#CBCCC2" stroke-width="0.25" stroke-miterlimit="10" cx="14.209" cy="17.594" r="2.844"/>
<g>
	<g>
		<path fill="#232323" d="M13.811,16.865c-0.016,0-0.03-0.004-0.045-0.013c-0.054-0.029-0.076-0.107-0.079-0.116
			c-0.005-0.017,0.006-0.033,0.022-0.038s0.034,0.005,0.038,0.021c0.005,0.017,0.022,0.064,0.05,0.078
			c0.007,0.004,0.015,0.005,0.023,0.002c0.041-0.013,0.051-0.046,0.063-0.1c0.011-0.048,0.025-0.109,0.094-0.116
			c0.07-0.008,0.115,0.074,0.151,0.14c0.012,0.022,0.028,0.053,0.037,0.059c0.02,0.011,0.083-0.011,0.104-0.048
			c0.018-0.029,0.04-0.047,0.066-0.053c0.051-0.011,0.1,0.025,0.144,0.058c0.018,0.012,0.033,0.024,0.048,0.032
			c0.029,0.017,0.068,0.015,0.103,0.011c0.018-0.001,0.033,0.012,0.034,0.028c0.002,0.017-0.011,0.032-0.027,0.034
			c-0.048,0.005-0.098,0.006-0.14-0.019c-0.019-0.01-0.036-0.023-0.055-0.036c-0.031-0.022-0.07-0.051-0.094-0.047
			c-0.009,0.002-0.017,0.01-0.025,0.023c-0.035,0.061-0.134,0.099-0.188,0.071c-0.023-0.012-0.04-0.042-0.063-0.084
			c-0.022-0.041-0.061-0.11-0.09-0.107c-0.021,0.002-0.027,0.017-0.039,0.068c-0.012,0.051-0.027,0.121-0.104,0.146
			C13.83,16.863,13.821,16.865,13.811,16.865z"/>
	</g>
	<path fill-rule="evenodd" clip-rule="evenodd" fill="#232323" d="M13.003,16.852c-0.024-0.666,0.507-1.234,1.159-1.262
		c0.777-0.033,1.277,0.621,1.279,1.203c0.002,0.371-0.138,0.673-0.396,0.929c-0.134,0.135-0.218,0.295-0.237,0.484
		c-0.008,0.078-0.044,0.113-0.119,0.132c-0.299,0.073-0.598,0.151-0.896,0.229c-0.063,0.015-0.14,0.042-0.158-0.043
		c-0.02-0.086,0.064-0.094,0.125-0.107c0.27-0.066,0.538-0.134,0.808-0.197c0.062-0.015,0.093-0.033,0.104-0.105
		c0.031-0.205,0.135-0.377,0.287-0.521c0.421-0.402,0.44-1.048,0.063-1.485c-0.411-0.479-1.115-0.451-1.498-0.116
		c-0.479,0.42-0.499,1.177-0.039,1.616c0.188,0.18,0.284,0.412,0.317,0.671c0.008,0.053-0.01,0.104-0.07,0.098
		c-0.027-0.002-0.068-0.045-0.072-0.073c-0.034-0.266-0.17-0.476-0.346-0.669C13.104,17.401,13.015,17.166,13.003,16.852z"/>
	<g>
		<g>
			<path fill="#232323" d="M13.713,18.874c0.35-0.092,0.699-0.184,1.049-0.276c0.081-0.021,0.046-0.146-0.034-0.125
				c-0.35,0.092-0.699,0.184-1.049,0.276C13.598,18.77,13.632,18.895,13.713,18.874L13.713,18.874z"/>
		</g>
	</g>
	<g>
		<g>
			<path fill="#232323" d="M13.713,18.562c0.35-0.092,0.699-0.184,1.049-0.276c0.081-0.021,0.046-0.146-0.034-0.125
				c-0.35,0.092-0.699,0.184-1.049,0.276C13.598,18.458,13.632,18.583,13.713,18.562L13.713,18.562z"/>
		</g>
	</g>
	<g>
		<g>
			<path fill="#232323" d="M13.713,19.198c0.35-0.092,0.699-0.185,1.049-0.277c0.081-0.021,0.046-0.146-0.034-0.125
				c-0.35,0.092-0.699,0.185-1.049,0.277C13.598,19.094,13.632,19.219,13.713,19.198L13.713,19.198z"/>
		</g>
	</g>
	<g>
		<g>
			<path fill="#232323" d="M14.509,19.334c-0.182,0.01-0.365,0.02-0.547,0.03c-0.05-0.065-0.163-0.001-0.112,0.065
				c0.224,0.295,0.577,0.303,0.771-0.03C14.663,19.327,14.551,19.262,14.509,19.334L14.509,19.334z"/>
		</g>
	</g>
	<g>
		<g>
			<path fill="#232323" d="M14.153,18.158c-0.078-0.348-0.155-0.695-0.232-1.043c-0.032,0.024-0.063,0.049-0.095,0.073
				c0.114,0.064,0.227,0.129,0.341,0.194c0.02,0.011,0.045,0.012,0.065,0c0.115-0.068,0.23-0.136,0.346-0.203
				c-0.032-0.024-0.063-0.049-0.095-0.073c-0.051,0.327-0.102,0.654-0.152,0.981c-0.013,0.082,0.112,0.117,0.125,0.034
				c0.051-0.327,0.102-0.654,0.152-0.981c0.008-0.053-0.042-0.104-0.095-0.073c-0.331,0.195-0.288,0.199-0.621,0.009
				c-0.051-0.029-0.107,0.019-0.095,0.073c0.078,0.348,0.155,0.695,0.232,1.043C14.046,18.274,14.171,18.239,14.153,18.158
				L14.153,18.158z"/>
		</g>
	</g>
</g>
<g>
	<g>
		<g>
			<g>
				<g>
					<path fill="#CBCCC2" d="M17.259,23.852h-5.688c-0.179,0-0.322,0.146-0.322,0.32c0,0.179,0.144,0.322,0.322,0.322h5.688
						c0.177,0,0.321-0.144,0.321-0.322C17.581,23.999,17.436,23.852,17.259,23.852z"/>
				</g>
			</g>
		</g>
	</g>
</g>
<g>
	<g>
		<g>
			<g>
				<g>
					<path fill="#CBCCC2" d="M17.259,25.275h-5.688c-0.179,0-0.322,0.144-0.322,0.321s0.144,0.321,0.322,0.321h5.688
						c0.177,0,0.321-0.144,0.321-0.321S17.436,25.275,17.259,25.275z"/>
				</g>
			</g>
		</g>
	</g>
</g>
<g>
	<defs>
		<circle id="SVGID_3_" cx="17.541" cy="17.357" r="17.464"/>
	</defs>
	<clipPath id="SVGID_4_">
		<use xlink:href="#SVGID_3_"  overflow="visible"/>
	</clipPath>
	<g clip-path="url(#SVGID_4_)">
		<polygon fill="#EF6D61" points="35.415,10.266 22.565,23.185 23.549,23.185 36.185,10.767 		"/>
		<polygon fill="#E86557" points="25.124,25.645 25.124,24.415 36.003,13.568 36.545,14.158 		"/>
		<polygon fill="#BFC1A9" points="22.565,23.185 21.285,26.875 23.549,23.185 		"/>
		<polygon fill="#B0AFA4" points="23.549,23.185 25.136,24.452 21.285,26.875 		"/>
		<polygon fill="#A5A497" points="21.285,26.875 25.124,25.645 25.148,24.427 		"/>
		<polygon fill="#232323" points="21.581,25.99 21.851,25.965 22.196,26.286 22.187,26.598 21.285,26.875 		"/>
		<polygon fill="#EC6B57" points="23.549,23.185 23.794,24.366 25.124,24.415 37.251,12.308 36.648,11.589 35.805,11.121 		"/>
	</g>
</g>
</svg>
