<?xml version="1.0" encoding="utf-8"?>
<!-- Generator: Adobe Illustrator 16.0.0, SVG Export Plug-In . SVG Version: 6.00 Build 0)  -->
<!DOCTYPE svg PUBLIC "-//W3C//DTD SVG 1.1//EN" "http://www.w3.org/Graphics/SVG/1.1/DTD/svg11.dtd">
<svg version="1.1" id="Ğ¨Ğ°Ñ€_1" xmlns="http://www.w3.org/2000/svg" xmlns:xlink="http://www.w3.org/1999/xlink" x="0px" y="0px"
	 width="34.929px" height="34.928px" viewBox="0 0 34.929 34.928" enable-background="new 0 0 34.929 34.928" xml:space="preserve">
<g>
	<g>
		<g>
			<g>
				<circle fill="#EC6B57" cx="17.464" cy="17.464" r="17.464"/>
			</g>
		</g>
	</g>
</g>
<path fill="#232323" d="M15.074,26.134v1.927c0,0,0.027,0.625-0.369,0.965s-0.822,0.313-0.822,0.313v0.538h7.286v-0.482
	c0,0-0.511-0.056-0.821-0.34c-0.345-0.313-0.369-0.767-0.369-0.767v-2.124L15.074,26.134z"/>
<path fill="#232323" d="M30.213,25.737c0,0.25-0.203,0.453-0.453,0.453H5.039c-0.251,0-0.455-0.203-0.455-0.453V8.272
	c0-0.25,0.204-0.453,0.455-0.453H29.76c0.25,0,0.453,0.203,0.453,0.453V25.737z"/>
<rect x="5.908" y="9.105" fill="#CBCCC2" width="23.284" height="12.246"/>
<g>
	<g>
		<g>
			<g>
				<g>
					<path fill="#BFC1A9" d="M16.592,23.229h-6.301c-0.111,0-0.204,0.092-0.204,0.203c0,0.112,0.093,0.201,0.204,0.201h6.301
						c0.112,0,0.203-0.089,0.203-0.201C16.795,23.32,16.704,23.229,16.592,23.229z"/>
				</g>
			</g>
		</g>
	</g>
</g>
<rect x="5.908" y="9.105" fill="none" width="23.284" height="12.246"/>
<path fill="#BFC1A9" d="M30.213,22.561v3.177c0,0.25-0.203,0.453-0.453,0.453H5.039c-0.251,0-0.455-0.203-0.455-0.453v-3.232
	L30.213,22.561z"/>
<circle fill="#232323" cx="17.53" cy="24.395" r="0.624"/>
<path fill="#FFFFFF" d="M7.588,21.337V9.786c0-0.351,0.283-0.635,0.634-0.635h18.636c0.348,0,0.634,0.284,0.634,0.635v11.569
	L7.588,21.337z"/>
<g>
	<g>
		<g>
			<g>
				<g>
					<path fill="#BFC1A9" d="M24.902,15.646H10.291c-0.111,0-0.204,0.09-0.204,0.203c0,0.112,0.093,0.204,0.204,0.204h14.611
						c0.11,0,0.201-0.092,0.201-0.204C25.104,15.735,25.013,15.646,24.902,15.646z"/>
				</g>
			</g>
		</g>
	</g>
</g>
<g>
	<g>
		<g>
			<g>
				<g>
					<path fill="#BFC1A9" d="M16.389,14.695h-6.098c-0.111,0-0.204,0.09-0.204,0.202S10.18,15.1,10.291,15.1h6.098
						c0.11,0,0.201-0.09,0.201-0.202S16.499,14.695,16.389,14.695z"/>
				</g>
			</g>
		</g>
	</g>
</g>
<g>
	<g>
		<g>
			<g>
				<g>
					<path fill="#BFC1A9" d="M16.389,11.602h-6.098c-0.111,0-0.204,0.09-0.204,0.202s0.093,0.202,0.204,0.202h6.098
						c0.11,0,0.201-0.09,0.201-0.202S16.499,11.602,16.389,11.602z"/>
				</g>
			</g>
		</g>
	</g>
</g>
<g>
	<g>
		<g>
			<g>
				<g>
					<path fill="#BFC1A9" d="M13.607,12.695h-3.316c-0.111,0-0.204,0.09-0.204,0.202S10.18,13.1,10.291,13.1h3.316
						c0.11,0,0.201-0.09,0.201-0.202S13.718,12.695,13.607,12.695z"/>
				</g>
			</g>
		</g>
	</g>
</g>
<g>
	<g>
		<g>
			<g>
				<g>
					<path fill="#BFC1A9" d="M17.795,13.664h-7.504c-0.111,0-0.204,0.09-0.204,0.202s0.093,0.202,0.204,0.202h7.504
						c0.11,0,0.201-0.09,0.201-0.202S17.905,13.664,17.795,13.664z"/>
				</g>
			</g>
		</g>
	</g>
</g>
<line fill="none" stroke="#EC6B57" stroke-width="0.1571" stroke-miterlimit="10" x1="7.577" y1="10.433" x2="27.478" y2="10.433"/>
<circle fill="#EC6B57" cx="8.415" cy="9.786" r="0.238"/>
<circle fill="#EC6B57" cx="9.207" cy="9.786" r="0.236"/>
<circle fill="#EC6B57" cx="10" cy="9.786" r="0.238"/>
<rect x="5.908" y="9.105" fill="none" width="23.284" height="12.246"/>
<text transform="matrix(1 0 0 1 12.3154 20.1768)" fill="#EC6B57" font-family="'OCRAbyBT-Regular'" font-size="5.4864">&lt;/&gt;</text>
<polygon opacity="0.3" fill="#6F7C85" points="14.223,9.105 29.192,9.105 29.192,21.352 26.772,21.352 "/>
</svg>
