<?xml version="1.0" encoding="utf-8"?>
<!-- Generator: Adobe Illustrator 16.0.0, SVG Export Plug-In . SVG Version: 6.00 Build 0)  -->
<!DOCTYPE svg PUBLIC "-//W3C//DTD SVG 1.1//EN" "http://www.w3.org/Graphics/SVG/1.1/DTD/svg11.dtd">
<svg version="1.1" id="Шар_1" xmlns="http://www.w3.org/2000/svg" xmlns:xlink="http://www.w3.org/1999/xlink" x="0px" y="0px"
	 width="34.929px" height="34.928px" viewBox="0 0 34.929 34.928" enable-background="new 0 0 34.929 34.928" xml:space="preserve">
<g>
	<g>
		<g>
			<g>
				<circle fill="#232323" cx="17.464" cy="17.464" r="17.464"/>
			</g>
		</g>
	</g>
</g>
<path fill="#FFFFFF" d="M25.171,30.127c0,0.529-0.429,0.959-0.959,0.959H10.627c-0.53,0-0.959-0.43-0.959-0.959V4.675
	c0-0.529,0.429-0.959,0.959-0.959h13.585c0.53,0,0.959,0.43,0.959,0.959V30.127z"/>
<rect x="11.267" y="6.832" fill="#CBCCC2" width="12.386" height="20.257"/>
<path fill="#CBCCC2" d="M19.796,5.415c0,0.099-0.081,0.18-0.181,0.18h-3.888c-0.1,0-0.18-0.081-0.18-0.18l0,0
	c0-0.099,0.08-0.179,0.18-0.179h3.888C19.715,5.236,19.796,5.316,19.796,5.415L19.796,5.415z"/>
<circle fill="#CBCCC2" cx="15.121" cy="5.415" r="0.18"/>
<circle fill="#CBCCC2" cx="17.619" cy="29.048" r="1.199"/>
<circle opacity="0.3" fill="#6F7C85" cx="17.619" cy="29.048" r="0.93"/>
<g>
	<path fill-rule="evenodd" clip-rule="evenodd" fill="#232323" d="M17.61,15.388c0.079,0.042,0.114,0.105,0.112,0.198
		c-0.005,0.259-0.001,0.517-0.001,0.777c0,0.133-0.055,0.188-0.185,0.188c-0.033,0.001-0.067,0.002-0.1,0
		c-0.093-0.004-0.154-0.061-0.154-0.152c-0.002-0.284,0-0.568-0.001-0.851c0-0.083,0.048-0.125,0.111-0.16
		C17.465,15.388,17.539,15.388,17.61,15.388z"/>
	<path fill-rule="evenodd" clip-rule="evenodd" fill="#EC6B57" d="M17.394,19.464c-0.084-0.053-0.115-0.123-0.111-0.226
		c0.008-0.254,0.001-0.506,0.001-0.761c0.002-0.125,0.05-0.173,0.177-0.174c0.032-0.001,0.065-0.001,0.099,0
		c0.105,0.002,0.16,0.057,0.16,0.163c0.001,0.271-0.002,0.543,0.003,0.814c0,0.088-0.05,0.137-0.111,0.183
		C17.539,19.464,17.465,19.464,17.394,19.464z"/>
	<path fill-rule="evenodd" clip-rule="evenodd" fill="#EC6B57" d="M19.53,17.544c-0.054,0.083-0.126,0.112-0.229,0.109
		c-0.245-0.005-0.492-0.002-0.74-0.002c-0.142,0-0.189-0.048-0.189-0.188c0-0.037-0.002-0.073,0.001-0.108
		c0.004-0.081,0.056-0.137,0.139-0.137c0.29-0.003,0.583,0,0.874-0.002c0.078,0,0.102,0.066,0.145,0.11
		C19.53,17.398,19.53,17.471,19.53,17.544z"/>
	<path fill-rule="evenodd" clip-rule="evenodd" fill="#EC6B57" d="M15.455,17.327c0.05-0.084,0.12-0.115,0.219-0.113
		c0.255,0.007,0.512,0.002,0.768,0.003c0.124,0,0.173,0.051,0.174,0.175c0.003,0.233-0.024,0.262-0.255,0.262
		c-0.229,0-0.459-0.005-0.687,0.001c-0.099,0.003-0.168-0.029-0.219-0.11C15.455,17.471,15.455,17.398,15.455,17.327z"/>
	<path fill-rule="evenodd" clip-rule="evenodd" fill="#232323" d="M16.606,15.603c0.069,0.004,0.116,0.034,0.146,0.088
		c0.139,0.239,0.278,0.479,0.415,0.72c0.055,0.097,0.032,0.17-0.062,0.229c-0.03,0.019-0.061,0.038-0.093,0.054
		c-0.087,0.045-0.169,0.024-0.218-0.058c-0.144-0.245-0.285-0.49-0.424-0.735c-0.044-0.078-0.025-0.157,0.049-0.206
		C16.479,15.656,16.537,15.609,16.606,15.603z"/>
	<path fill-rule="evenodd" clip-rule="evenodd" fill="#232323" d="M15.898,16.276c0.035-0.004,0.065,0.007,0.095,0.025
		c0.231,0.134,0.465,0.267,0.696,0.402c0.126,0.075,0.131,0.14,0.032,0.305c-0.067,0.11-0.141,0.129-0.257,0.061
		c-0.226-0.129-0.449-0.258-0.674-0.387c-0.115-0.066-0.138-0.138-0.071-0.254C15.762,16.356,15.789,16.269,15.898,16.276z"/>
	<path fill-rule="evenodd" clip-rule="evenodd" fill="#EC6B57" d="M18.207,16.888c-0.002-0.085,0.024-0.131,0.079-0.163
		c0.232-0.132,0.464-0.265,0.695-0.4c0.073-0.044,0.152-0.075,0.212-0.004c0.063,0.072,0.137,0.15,0.116,0.262
		c-0.008,0.047-0.041,0.076-0.083,0.103c-0.244,0.141-0.488,0.282-0.73,0.424c-0.045,0.027-0.096,0.03-0.139,0.001
		C18.27,17.054,18.226,16.967,18.207,16.888z"/>
	<path fill-rule="evenodd" clip-rule="evenodd" fill="#EC6B57" d="M18.422,17.725c0.039-0.004,0.069,0.015,0.1,0.033
		c0.217,0.125,0.432,0.253,0.647,0.375c0.179,0.101,0.191,0.282,0.024,0.402c-0.051,0.035-0.104,0.053-0.17,0.017
		c-0.247-0.146-0.499-0.288-0.747-0.433c-0.021-0.011-0.038-0.031-0.049-0.053C18.16,17.951,18.288,17.728,18.422,17.725z"/>
	<path fill-rule="evenodd" clip-rule="evenodd" fill="#EC6B57" d="M17.194,18.373c0.003,0.02-0.016,0.051-0.034,0.083
		c-0.125,0.215-0.251,0.431-0.375,0.647c-0.1,0.178-0.282,0.189-0.403,0.021c-0.035-0.052-0.052-0.104-0.014-0.167
		c0.145-0.25,0.286-0.5,0.431-0.75c0.012-0.016,0.027-0.033,0.045-0.044c0.065-0.038,0.132-0.028,0.196,0.011
		C17.111,18.217,17.19,18.254,17.194,18.373z"/>
	<path fill-rule="evenodd" clip-rule="evenodd" fill="#EC6B57" d="M18.646,15.801c-0.004,0.13-0.073,0.198-0.115,0.276
		c-0.101,0.185-0.209,0.364-0.315,0.547c-0.064,0.108-0.127,0.127-0.239,0.069c-0.035-0.018-0.068-0.037-0.102-0.059
		c-0.068-0.049-0.088-0.132-0.045-0.208c0.133-0.232,0.265-0.465,0.398-0.696c0.074-0.131,0.152-0.147,0.283-0.069
		C18.578,15.702,18.652,15.734,18.646,15.801z"/>
	<path fill-rule="evenodd" clip-rule="evenodd" fill="#EC6B57" d="M15.901,18.575c-0.104,0.008-0.148-0.063-0.211-0.216
		c-0.033-0.082,0.014-0.144,0.086-0.186c0.241-0.14,0.485-0.279,0.728-0.418c0.01-0.006,0.021-0.011,0.033-0.013
		c0.104-0.02,0.181,0.046,0.245,0.209c0.031,0.076,0.001,0.143-0.086,0.193c-0.229,0.133-0.458,0.266-0.687,0.396
		C15.975,18.563,15.941,18.582,15.901,18.575z"/>
	<path fill-rule="evenodd" clip-rule="evenodd" fill="#EC6B57" d="M18.644,19.016c0.006,0.104-0.061,0.148-0.216,0.212
		c-0.082,0.033-0.145-0.014-0.187-0.085c-0.14-0.242-0.278-0.484-0.418-0.728c-0.005-0.01-0.009-0.022-0.013-0.033
		c-0.021-0.103,0.044-0.18,0.207-0.245c0.079-0.031,0.143-0.003,0.194,0.085c0.133,0.228,0.266,0.457,0.396,0.687
		C18.629,18.942,18.648,18.977,18.644,19.016z"/>
</g>
<polygon opacity="0.3" fill="#6F7C85" points="14.381,6.851 23.65,6.851 23.65,27.129 22.492,27.129 "/>
</svg>
