<?xml version="1.0" encoding="utf-8"?>
<!-- Generator: Adobe Illustrator 16.0.0, SVG Export Plug-In . SVG Version: 6.00 Build 0)  -->
<!DOCTYPE svg PUBLIC "-//W3C//DTD SVG 1.1//EN" "http://www.w3.org/Graphics/SVG/1.1/DTD/svg11.dtd">
<svg version="1.1" id="Шар_1" xmlns="http://www.w3.org/2000/svg" xmlns:xlink="http://www.w3.org/1999/xlink" x="0px" y="0px"
	 width="28.346px" height="28.346px" viewBox="4.285 0.577 28.346 28.346" enable-background="new 4.285 0.577 28.346 28.346"
	 xml:space="preserve">
<g>
	<path fill="none" stroke="#FFFFFF" stroke-width="0.55" stroke-miterlimit="10" d="M31.763,12.006
		c-0.1-0.544-0.262-1.091-0.445-1.483c-0.674-1.438-1.688-2.318-3.24-2.57c-0.451-0.072-0.621-0.191-0.66-0.665
		c-0.268-3.225-2.094-5.457-4.885-6.017c-3.061-0.616-5.674,0.733-7.199,3.712c-0.036,0.071-0.076,0.14-0.141,0.259
		c-1.012-1.053-2.199-1.287-3.515-0.68c-1.356,0.628-1.902,1.715-1.656,3.244c-2.859,0.016-4.627,1.439-4.848,3.811
		c-0.229,2.483,1.119,4.722,3.953,4.722c4.737,0,14.072,0,18.977,0C29.142,16.338,32.47,15.896,31.763,12.006z"/>
	<circle fill="none" stroke="#FFFFFF" stroke-width="0.55" stroke-miterlimit="10" cx="18.583" cy="19.39" r="1.747"/>
	<circle fill="none" stroke="#FFFFFF" stroke-width="0.55" stroke-miterlimit="10" cx="18.583" cy="27.155" r="1.747"/>
	<line fill="none" stroke="#FFFFFF" stroke-width="0.55" stroke-miterlimit="10" x1="18.493" y1="25.381" x2="18.493" y2="21.178"/>
	<line fill="none" stroke="#FFFFFF" stroke-width="0.55" stroke-miterlimit="10" x1="25.078" y1="21.047" x2="20.285" y2="19.87"/>
	<line fill="none" stroke="#FFFFFF" stroke-width="0.55" stroke-miterlimit="10" x1="12.185" y1="21.047" x2="16.932" y2="19.87"/>
	<path fill="none" stroke="#FFFFFF" stroke-width="0.55" stroke-miterlimit="10" d="M24.687,22.012c0-0.963,0.779-1.744,1.746-1.744
		c0.963,0,1.746,0.781,1.746,1.744c0,0.967-0.783,1.746-1.746,1.746C25.466,23.758,24.687,22.979,24.687,22.012z"/>
	<path fill="none" stroke="#FFFFFF" stroke-width="0.55" stroke-miterlimit="10" d="M9.062,22.012c0-0.963,0.781-1.744,1.748-1.744
		c0.962,0,1.745,0.781,1.745,1.744c0,0.967-0.783,1.746-1.745,1.746C9.843,23.758,9.062,22.979,9.062,22.012z"/>
</g>
</svg>
