<?xml version="1.0" encoding="utf-8"?>
<!-- Generator: Adobe Illustrator 16.0.0, SVG Export Plug-In . SVG Version: 6.00 Build 0)  -->
<!DOCTYPE svg PUBLIC "-//W3C//DTD SVG 1.1//EN" "http://www.w3.org/Graphics/SVG/1.1/DTD/svg11.dtd">
<svg version="1.1" id="Шар_1" xmlns="http://www.w3.org/2000/svg" xmlns:xlink="http://www.w3.org/1999/xlink" x="0px" y="0px"
	 width="38.167px" height="28.333px" viewBox="0 0 38.167 28.333" enable-background="new 0 0 38.167 28.333" xml:space="preserve">
<path fill-rule="evenodd" clip-rule="evenodd" fill="none" stroke="#FFFFFF" stroke-width="0.55" stroke-miterlimit="10" d="
	M33.446,13.526c-0.109-0.391-0.218-0.805-0.345-1.211c-0.595-1.916-1.9-3.059-3.863-3.377c-0.572-0.093-0.786-0.243-0.835-0.842
	c-0.339-4.078-2.647-6.899-6.174-7.606c-3.87-0.777-7.175,0.928-9.102,4.693c-0.046,0.089-0.096,0.177-0.178,0.327
	c-1.279-1.332-2.779-1.627-4.441-0.859C6.793,5.443,6.103,6.818,6.413,8.752c-3.614,0.02-5.849,1.82-6.127,4.817
	c-0.292,3.14,1.481,5.273,4.997,5.969"/>
<path fill-rule="evenodd" clip-rule="evenodd" fill="none" stroke="#FFFFFF" stroke-width="0.55" stroke-miterlimit="10" d="
	M37.844,15.903c0,2.089,0,4.177,0,6.266c-0.02,0.019-0.05,0.034-0.058,0.058c-0.534,1.726-1.212,2.229-3,2.229
	c-8.792,0-17.585,0-26.378,0c-0.195,0-0.395,0.004-0.591-0.01c-1.072-0.076-1.827-0.604-2.233-1.604
	c-0.101-0.247-0.172-0.504-0.257-0.757c0-2.061,0-4.119,0-6.181c0.06-0.187,0.112-0.377,0.177-0.562
	c0.319-0.914,0.932-1.501,1.904-1.654c0.317-0.051,0.644-0.067,0.968-0.067c8.521-0.005,17.044-0.003,25.568-0.003
	c0.438,0,0.874-0.008,1.312,0.003c1.224,0.028,2.071,0.679,2.436,1.854C37.736,15.618,37.792,15.76,37.844,15.903z M10.719,21.727
	c0-1.814,0-3.597,0-5.367c-0.909,0-1.789,0-2.659,0c0,1.806,0,3.577,0,5.367C8.951,21.727,9.819,21.727,10.719,21.727z
	 M13.479,16.346c0,1.819,0,3.591,0,5.373c0.902,0,1.781,0,2.658,0c0-1.807,0-3.589,0-5.373
	C15.238,16.346,14.369,16.346,13.479,16.346z M21.565,16.351c-0.899,0-1.776,0-2.662,0c0,1.806,0,3.587,0,5.363
	c0.906,0,1.785,0,2.662,0C21.565,19.911,21.565,18.14,21.565,16.351z M24.317,21.718c0.903,0,1.781,0,2.655,0
	c0-1.809,0-3.589,0-5.371c-0.896,0-1.769,0-2.655,0C24.317,18.138,24.317,19.908,24.317,21.718z M35.104,19.017
	c0-0.908,0-1.786,0-2.658c-0.906,0-1.783,0-2.659,0c0,0.899,0,1.768,0,2.658C33.332,19.017,34.201,19.017,35.104,19.017z"/>
</svg>
