<?xml version="1.0" encoding="utf-8"?>
<!-- Generator: Adobe Illustrator 16.0.0, SVG Export Plug-In . SVG Version: 6.00 Build 0)  -->
<!DOCTYPE svg PUBLIC "-//W3C//DTD SVG 1.1//EN" "http://www.w3.org/Graphics/SVG/1.1/DTD/svg11.dtd">
<svg version="1.1" id="Шар_1" xmlns="http://www.w3.org/2000/svg" xmlns:xlink="http://www.w3.org/1999/xlink" x="0px" y="0px"
	 width="41px" height="41px" viewBox="0 0 41 41" enable-background="new 0 0 41 41" xml:space="preserve">
<path fill-rule="evenodd" clip-rule="evenodd" fill="none" stroke="#FFFFFF" stroke-width="0.55" stroke-miterlimit="10" d="
	M20.777,35.178c-8.207-0.017-14.83-6.723-14.806-14.989c0.027-8.183,6.718-14.813,14.915-14.783
	c8.155,0.03,14.847,6.754,14.827,14.903C35.698,28.547,29.021,35.191,20.777,35.178z"/>
<path fill-rule="evenodd" clip-rule="evenodd" fill="none" stroke="#FFFFFF" stroke-width="0.55" stroke-miterlimit="10" d="
	M15.017,21.961c-2.206,0.717-4.37,1.419-6.788,2.204c0.199,0.898,0.563,1.91,1.054,2.749c0.483,0.83,0.997,1.567,1.92,2.328
	c1.784-1.875,3.359-3.534,4.95-5.207C15.836,23.457,15.457,22.764,15.017,21.961z"/>
<path fill-rule="evenodd" clip-rule="evenodd" fill="none" stroke="#FFFFFF" stroke-width="0.55" stroke-miterlimit="10" d="
	M24.926,20.319c0.014-2.262-1.82-4.12-4.075-4.128c-2.266-0.006-4.108,1.822-4.122,4.084c-0.011,2.26,1.825,4.117,4.08,4.126
	C23.074,24.411,24.912,22.588,24.926,20.319z"/>
<path fill-rule="evenodd" clip-rule="evenodd" fill="none" stroke="#FFFFFF" stroke-width="0.55" stroke-miterlimit="10" d="
	M15.217,32.345c1.108-2.153,2.149-4.177,3.199-6.217c-0.426-0.275-0.756-0.489-1.149-0.744c-1.307,1.948-2.59,3.86-3.904,5.821
	c0.292,0.329,0.586,0.504,0.851,0.668C14.547,32.078,14.809,32.21,15.217,32.345z"/>
<path fill-rule="evenodd" clip-rule="evenodd" fill="none" stroke="#FFFFFF" stroke-width="0.55" stroke-miterlimit="10" d="
	M20.812,17.93c1.282-0.008,2.365,1.05,2.384,2.325c0.017,1.282-1.026,2.373-2.307,2.407c-1.301,0.036-2.448-1.083-2.438-2.376
	C18.465,19.015,19.543,17.936,20.812,17.93z"/>
<path fill-rule="evenodd" clip-rule="evenodd" fill="none" stroke="#FFFFFF" stroke-width="0.55" stroke-miterlimit="10" d="
	M25.9,16.931c1.939-1.271,3.964-2.577,6.091-3.969c-0.427-0.834-1.211-1.789-1.903-2.467C29.4,9.82,28.787,9.331,27.791,8.763
	c-1.229,2.277-2.438,4.433-3.532,6.466C24.715,15.703,25.266,16.272,25.9,16.931z"/>
<circle fill-rule="evenodd" clip-rule="evenodd" fill="none" stroke="#FFFFFF" stroke-width="0.7887" stroke-miterlimit="10" cx="20.625" cy="20.375" r="19.98"/>
</svg>
