<?xml version="1.0" encoding="utf-8"?>
<!-- Generator: Adobe Illustrator 16.0.0, SVG Export Plug-In . SVG Version: 6.00 Build 0)  -->
<!DOCTYPE svg PUBLIC "-//W3C//DTD SVG 1.1//EN" "http://www.w3.org/Graphics/SVG/1.1/DTD/svg11.dtd">
<svg version="1.1" id="Шар_1" xmlns="http://www.w3.org/2000/svg" xmlns:xlink="http://www.w3.org/1999/xlink" x="0px" y="0px"
	 width="28.667px" height="28.667px" viewBox="0 0 28.667 28.667" enable-background="new 0 0 28.667 28.667" xml:space="preserve">
<g>
	<g>
		<g>
			<g>
				<circle fill="none" stroke="#FFFFFF" stroke-width="0.55" stroke-miterlimit="10" cx="14.343" cy="14.437" r="14.011"/>
			</g>
		</g>
	</g>
</g>
<path fill-rule="evenodd" clip-rule="evenodd" fill="none" stroke="#FFFFFF" stroke-width="0.55" stroke-miterlimit="10" d="
	M14.344,0.275C6.618,0.262,0.282,6.566,0.281,14.267c0,7.77,6.258,14.102,13.947,14.109c7.819,0.008,14.166-6.297,14.151-14.065
	C28.367,6.596,22.062,0.292,14.344,0.275z M11.315,0.661c0.191,0.006,0.391-0.096,0.578-0.07c0.225,0.026,0.598,0.031,0.5,0.392
	c-0.101,0.369-0.343-0.021-0.524,0.009c-0.107,0.019-0.222,0.003-0.332,0.003c0.259,0.2,0.176,0.744,0.706,0.692
	c0.146-0.015,0.111,0.128,0.064,0.244c-0.221,0.553-0.061,0.934,0.731,1.054c-0.971,0.452-1.134-0.459-1.638-0.633
	c0,0.005-0.007,0.009-0.009,0.015c-0.002,0-0.005,0-0.005,0c0.003,0.897-0.827,0.518-1.191,0.853
	c0.29-0.735,0.056-1.252-0.951-1.838C10.122,1.432,10.547,0.639,11.315,0.661z M15.294,4.521c-0.847-0.099-1.08,0.422-0.849,1.026
	c0.312,0.802-0.153,1.521,0,2.27c-0.216,0.045-0.349-0.053-0.38-0.183c-0.238-0.997-1.084-1.108-1.86-1.205
	c-0.447-0.056-0.673-0.246-0.811-0.6c-0.2-0.507,0.194-0.792,0.502-1.061c0.233-0.201,0.471-0.645,0.887-0.217
	c0.345,0.359,0.559-0.334,0.917-0.219c-0.234-0.143-0.468-0.287-0.768-0.471c0.18-0.258,0.568-0.301,0.602-0.622
	c0.028-0.233,0.021-0.491,0.368-0.37c0.335,0.114,0.8,0.049,0.942,0.442c0.08,0.22-0.123,0.478-0.399,0.575
	c-0.114,0.04-0.179,0.125-0.175,0.274C14.589,4.271,15.001,4.118,15.294,4.521z M11.856,9.488c0.437-0.438,0.769-0.683,1.225-0.446
	c0.084,0.044,0.203,0.198,0.095,0.276C12.809,9.586,12.384,9.452,11.856,9.488z M12.786,10.964
	c-0.065,0.137-0.168,0.266-0.301,0.167c-0.08-0.061-0.126-0.277-0.08-0.372c0.152-0.313,0.352-0.608,0.611-1.043
	C13.202,10.304,12.945,10.621,12.786,10.964z M16.237,28.146c-5.367,0.956-11.363-1.964-14.096-7.016
	C-0.497,16.25-0.26,11.396,2.655,6.684C2.866,6.342,2.949,5.801,3.59,5.805c0.298,0.004,0.013-0.468,0.46-0.799
	C3.766,6.385,4.331,7.563,3.701,8.822c-0.538,1.074-0.424,2.304,0.266,3.366c0.263,0.403,0.515,0.77,0.562,1.275
	c0.074,0.84,0.64,1.483,1.01,2.203c0.086,0.165,0.229,0.406,0.428,0.346c0.283-0.084,0.089-0.383,0.14-0.579
	c-0.12-0.082-0.366-0.155-0.231-0.32c0.127-0.153,0.292,0.006,0.38,0.16c0.414,0.398,0.733,0.833,0.827,1.428
	c0.099,0.631,0.504,1.009,1.102,1.268c1.348,0.584,2.722,1.071,4.123,1.495c0.247,0.072,0.505,0.154,0.644,0.376
	c0.537,0.857,1.213,1.291,2.303,1.113c0.528-0.084,0.683,0.388,0.396,0.88c-0.37,0.633-0.998,1.139-0.929,1.993
	c0.023,0.285-0.063,0.616,0.229,0.744c0.437,0.194,0.586,0.608,0.82,0.937c0.333,0.463,0.579,0.959,1.294,0.764
	c0.177-0.05,0.399,0.023,0.436,0.286C17.559,27.002,16.724,28.058,16.237,28.146z M26.106,20.436
	c-0.634-0.143-1.193,0.379-1.863,0.328c-0.359-0.026-0.602,0.077-0.71-0.417c-0.103-0.474-0.511-0.67-0.995-0.463
	c-0.324,0.14-0.586,0.2-0.914-0.038c-0.66-0.481-1.388-0.549-2.218-0.434c-1.156,0.158-2.386-0.209-3.341,0.915
	c-0.195,0.232-1.079,0.311-1.645,0.035c-0.126-0.059-0.308-0.115-0.279-0.274c0.264-1.404-0.635-1.526-1.758-1.462
	c0.116-0.297,0.191-0.447,0.234-0.606c0.064-0.249,0.461-0.488,0.174-0.728c-0.264-0.221-0.646-0.144-0.968,0.013
	c-0.101,0.048-0.194,0.116-0.281,0.19c-0.44,0.376-1.011,0.464-1.394,0.122c-0.304-0.267-0.499-0.781-0.335-1.295
	c0.087-0.267,0.103-0.554,0.133-0.836c0.058-0.608,0.37-0.882,0.97-0.681c0.458,0.155,0.851,0.111,1.294-0.097
	c0.821-0.384,1.278-0.19,1.753,0.58c0.117,0.187,0.152,0.573,0.503,0.45c0.369-0.129,0.423-0.547,0.281-0.787
	c-0.475-0.815-0.057-1.166,0.578-1.603c0.724-0.497,0.505-1.673,0.97-2.111c0.619-0.587,1.107-1.091,1.186-1.929
	c0.038-0.415,0.139-0.757,0.528-0.914c-0.046-0.322-0.429-0.153-0.513-0.526c0.586,0.063,1.041-0.675,1.69-0.081
	c0.137,0.121,0.371-0.084,0.528-0.191c0.232-0.157-0.011-0.274-0.063-0.406c-0.277-0.691-0.721-1.174-1.498-1.33
	c-0.289-0.057-0.583-0.217-0.782-0.478c-0.198-0.265-0.365-0.397-0.625-0.021c-0.194,0.281-0.485,0.298-0.646-0.08
	c-0.094-0.224-0.496-0.441,0.054-0.682c0.291-0.128,0.658-0.463,0.132-0.832c-0.073-0.052-0.213-0.133-0.008-0.218
	c0.744-0.304,0.269-0.498-0.074-0.663c-0.859-0.415-1.739-0.795-2.59-1.223c-0.292-0.144-0.354-0.34-0.1-0.678
	c0.207-0.275,0.225-0.675,0.689-0.338c0.405,0.295,0.834,0.37,1.345,0.288c0.735-0.12,1.125,0.528,1.577,0.929
	c0.69,0.61,1.041,1.574,2.012,1.913c0.318,0.11,0.602,0.353,0.927,0.065c0.345-0.301,0.205-0.629-0.038-0.887
	c-0.401-0.431-0.106-0.858,0.09-1.145c0.207-0.292,0.539,0.082,0.777,0.213c6.388,3.442,9.078,11.033,6.301,17.707
	C26.974,20.266,26.772,20.585,26.106,20.436z"/>
</svg>
