<?xml version="1.0" encoding="utf-8"?>
<!-- Generator: Adobe Illustrator 16.0.0, SVG Export Plug-In . SVG Version: 6.00 Build 0)  -->
<!DOCTYPE svg PUBLIC "-//W3C//DTD SVG 1.1//EN" "http://www.w3.org/Graphics/SVG/1.1/DTD/svg11.dtd">
<svg version="1.1" id="Шар_1" xmlns="http://www.w3.org/2000/svg" xmlns:xlink="http://www.w3.org/1999/xlink" x="0px" y="0px"
	 width="32px" height="32px" viewBox="0 0 32 32" enable-background="new 0 0 32 32" xml:space="preserve">
<path fill-rule="evenodd" clip-rule="evenodd" fill="#FFFFFF" d="M14.164,21.565c0.191-0.009,0.466,0.201,0.767,0.328
	c0.929,0.388,1.878,0.643,2.892,0.401c0.363-0.087,0.75-0.213,0.783-0.659c0.035-0.464-0.357-0.638-0.704-0.73
	c-0.747-0.204-1.514-0.339-2.271-0.512c-0.475-0.109-0.928-0.275-1.35-0.526c-1.113-0.66-1.174-2.092-0.106-2.83
	c0.472-0.326,1.007-0.503,1.572-0.578c0.275-0.037,0.481-0.096,0.486-0.44c0.005-0.464,0.342-0.59,0.718-0.576
	c0.35,0.015,0.661,0.165,0.668,0.583c0.006,0.341,0.21,0.404,0.479,0.46c0.532,0.112,1.056,0.251,1.552,0.488
	c0.285,0.137,0.426,0.33,0.396,0.638c-0.029,0.324-0.264,0.452-0.543,0.527c-0.317,0.086-0.609,0.002-0.905-0.114
	c-0.689-0.271-1.396-0.485-2.153-0.436c-0.255,0.017-0.498,0.065-0.736,0.159c-0.263,0.105-0.42,0.273-0.426,0.562
	c-0.005,0.28,0.117,0.469,0.375,0.6c0.515,0.259,1.08,0.314,1.629,0.43c0.629,0.132,1.257,0.258,1.855,0.495
	c0.867,0.343,1.287,0.887,1.289,1.662c0.002,0.778-0.414,1.348-1.254,1.694c-0.232,0.096-0.475,0.182-0.719,0.233
	c-0.434,0.093-0.873,0.097-0.885,0.75c-0.006,0.294-0.37,0.435-0.684,0.412c-0.326-0.023-0.652-0.131-0.646-0.529
	c0.007-0.455-0.266-0.545-0.617-0.595c-0.7-0.099-1.363-0.32-1.988-0.64c-0.286-0.146-0.643-0.318-0.516-0.737
	C13.248,21.671,13.611,21.572,14.164,21.565z"/>
<path fill-rule="evenodd" clip-rule="evenodd" fill="none" stroke="#FFFFFF" stroke-width="0.75" stroke-miterlimit="10" d="
	M9.279,5.408l2.162,3.288h10.162l2.331-3.335c0,0-0.518-0.846-2.349-0.846c-1.834,0-2.537,0.846-2.537,0.846
	s-1.174-0.798-2.301-0.846c-1.128-0.046-2.631,0.751-2.631,0.751S10.688,3.765,9.279,5.408z"/>
<path fill-rule="evenodd" clip-rule="evenodd" fill="none" stroke="#FFFFFF" stroke-width="0.75" stroke-miterlimit="10" d="
	M22.051,10.316c0,0.469-0.38,0.848-0.849,0.848h-9.326c-0.469,0-0.848-0.379-0.848-0.848V9.522c0-0.469,0.379-0.849,0.848-0.849
	h9.326c0.469,0,0.849,0.38,0.849,0.849V10.316z"/>
<path fill-rule="evenodd" clip-rule="evenodd" fill="none" stroke="#FFFFFF" stroke-width="0.75" stroke-miterlimit="10" d="
	M11.504,11.112c0,0-7.26,3.604-8.531,8.532c-1.157,4.483,0.69,11.232,14.549,11.232c13.856,0,14.758-8.795,12.267-13.087
	c-2.491-4.293-8.056-6.678-8.056-6.678"/>
</svg>
